/* XPM */
static char * collectible_xpm[] = {
"64 64 350 2",
"  	c #4FAF7B",
". 	c #4FAF7C",
"+ 	c #4FAF7A",
"@ 	c #4FB275",
"# 	c #4FB374",
"$ 	c #4FB079",
"% 	c #4FB07A",
"& 	c #50B471",
"* 	c #50B472",
"= 	c #4FB276",
"- 	c #50B178",
"; 	c #52B86B",
"> 	c #54BA67",
", 	c #52B473",
"' 	c #50B276",
") 	c #53B969",
"! 	c #54BD60",
"~ 	c #54BC61",
"{ 	c #52B76C",
"] 	c #4FB177",
"^ 	c #50B570",
"/ 	c #50B66E",
"( 	c #5DBE62",
"_ 	c #63C15D",
": 	c #63BE67",
"< 	c #5DBE61",
"[ 	c #52B76D",
"} 	c #4FAE7C",
"| 	c #4FB078",
"1 	c #4FB373",
"2 	c #4EB079",
"3 	c #53B46E",
"4 	c #54B86A",
"5 	c #5FBF60",
"6 	c #65C358",
"7 	c #64C359",
"8 	c #52B570",
"9 	c #56BC62",
"0 	c #56BE5E",
"a 	c #5ABF5D",
"b 	c #68C45A",
"c 	c #72C758",
"d 	c #72C759",
"e 	c #68C459",
"f 	c #59BE60",
"g 	c #50B177",
"h 	c #51B473",
"i 	c #55BB65",
"j 	c #56BA68",
"k 	c #82B06B",
"l 	c #9FA95A",
"m 	c #A88E40",
"n 	c #5DC05D",
"o 	c #6BC559",
"p 	c #73C757",
"q 	c #72C757",
"r 	c #51B66E",
"s 	c #5ABD64",
"t 	c #65C35B",
"u 	c #68C458",
"v 	c #69C558",
"w 	c #70C758",
"x 	c #74C857",
"y 	c #75C856",
"z 	c #70C757",
"A 	c #74B95F",
"B 	c #EEB665",
"C 	c #98A75D",
"D 	c #57BB66",
"E 	c #70BF5B",
"F 	c #E6D066",
"G 	c #FEEC85",
"H 	c #FDD55D",
"I 	c #C79437",
"J 	c #6BC558",
"K 	c #71C757",
"L 	c #75C857",
"M 	c #5CBE62",
"N 	c #52B969",
"O 	c #51B86A",
"P 	c #52B869",
"Q 	c #5FC05F",
"R 	c #70C659",
"S 	c #73C857",
"T 	c #67C35A",
"U 	c #75A44D",
"V 	c #A26E31",
"W 	c #77B755",
"X 	c #B5AD44",
"Y 	c #F5BA48",
"Z 	c #FED553",
"` 	c #FBCE59",
" .	c #A8A040",
"..	c #67C459",
"+.	c #5BBF5D",
"@.	c #55BD60",
"#.	c #50B375",
"$.	c #5FBB6A",
"%.	c #70C65B",
"&.	c #75C956",
"*.	c #6CC558",
"=.	c #72BE55",
"-.	c #999441",
";.	c #AE933A",
">.	c #D0741A",
",.	c #DF8D35",
"'.	c #C88B35",
").	c #7BC455",
"!.	c #69C35C",
"~.	c #5BBA6A",
"{.	c #5AB574",
"].	c #68BF66",
"^.	c #70C55D",
"/.	c #73C858",
"(.	c #84C454",
"_.	c #ACAF49",
":.	c #C1A744",
"<.	c #CEA43E",
"[.	c #B46C27",
"}.	c #A0551B",
"|.	c #BC5117",
"1.	c #C6782C",
"2.	c #A2AE49",
"3.	c #81C454",
"4.	c #51B07A",
"5.	c #58B475",
"6.	c #66BE68",
"7.	c #74C856",
"8.	c #84C253",
"9.	c #BE9A3B",
"0.	c #E69637",
"a.	c #F1B343",
"b.	c #FBD266",
"c.	c #FBD368",
"d.	c #DCA73A",
"e.	c #C76C26",
"f.	c #F8C85E",
"g.	c #F7C65B",
"h.	c #E38C32",
"i.	c #B69F40",
"j.	c #7DC455",
"k.	c #4EAE7C",
"l.	c #50B07A",
"m.	c #62BB6C",
"n.	c #8DBB50",
"o.	c #C68134",
"p.	c #F1B252",
"q.	c #F7C24C",
"r.	c #F9C040",
"s.	c #E7A12C",
"t.	c #D8871F",
"u.	c #C46B14",
"v.	c #C26417",
"w.	c #D87C1C",
"x.	c #EB9A29",
"y.	c #FAC753",
"z.	c #E9A95C",
"A.	c #C87C33",
"B.	c #84C053",
"C.	c #4EAF7B",
"D.	c #61BA6D",
"E.	c #70C55C",
"F.	c #7EC355",
"G.	c #BD7024",
"H.	c #E49431",
"I.	c #FBD274",
"J.	c #FEED92",
"K.	c #FEEB6E",
"L.	c #FDDC64",
"M.	c #DC8731",
"N.	c #BD7428",
"O.	c #7AC656",
"P.	c #63BC6C",
"Q.	c #6EC360",
"R.	c #74C858",
"S.	c #A3933C",
"T.	c #C76F15",
"U.	c #EEC76E",
"V.	c #FDCF4E",
"W.	c #FFFCB9",
"X.	c #FFFCC0",
"Y.	c #FFFCB2",
"Z.	c #FFFDC7",
"`.	c #E89D36",
" +	c #C45D16",
".+	c #99A045",
"++	c #56B474",
"@+	c #68C065",
"#+	c #75C657",
"$+	c #AA591D",
"%+	c #D27A1C",
"&+	c #F5CB82",
"*+	c #FAC543",
"=+	c #FEE25A",
"-+	c #FEF997",
";+	c #FFF6C5",
">+	c #FFFDCD",
",+	c #FFFCAA",
"'+	c #EEAB40",
")+	c #AC6327",
"!+	c #55BA68",
"~+	c #68C25E",
"{+	c #8AB54E",
"]+	c #A34310",
"^+	c #CD7919",
"/+	c #F3B73A",
"(+	c #FEDD56",
"_+	c #FEE566",
":+	c #FCE39A",
"<+	c #FDE28B",
"[+	c #FDDE70",
"}+	c #FEDB50",
"|+	c #E09727",
"1+	c #85BF54",
"2+	c #56BB65",
"3+	c #68C35C",
"4+	c #96A848",
"5+	c #A14607",
"6+	c #DC9223",
"7+	c #ECAC32",
"8+	c #F6BC3D",
"9+	c #FACA63",
"0+	c #F9C572",
"a+	c #F3B665",
"b+	c #E9A72F",
"c+	c #BA5F0F",
"d+	c #9E4307",
"e+	c #8FB64F",
"f+	c #4EB078",
"g+	c #54B572",
"h+	c #67C064",
"i+	c #98A949",
"j+	c #B65D0E",
"k+	c #D17F1B",
"l+	c #F9D68F",
"m+	c #F3B755",
"n+	c #AF540C",
"o+	c #9F410E",
"p+	c #99B54F",
"q+	c #54B179",
"r+	c #67BE68",
"s+	c #9FB450",
"t+	c #A74D09",
"u+	c #CD752E",
"v+	c #F7A946",
"w+	c #FCDA7F",
"x+	c #C06711",
"y+	c #A54909",
"z+	c #A84A13",
"A+	c #96C156",
"B+	c #4EAF7A",
"C+	c #54B277",
"D+	c #67BF67",
"E+	c #8BC457",
"F+	c #B3551A",
"G+	c #9A4006",
"H+	c #B2570C",
"I+	c #DF994A",
"J+	c #AC510A",
"K+	c #C76E32",
"L+	c #7AC758",
"M+	c #51B56F",
"N+	c #55B86C",
"O+	c #67C161",
"P+	c #CB8A38",
"Q+	c #963B08",
"R+	c #E8A94D",
"S+	c #BD6211",
"T+	c #BD5D26",
"U+	c #983D08",
"V+	c #C29C46",
"W+	c #50B373",
"X+	c #52BA66",
"Y+	c #5ABF5E",
"Z+	c #69C45A",
"`+	c #B5B750",
" @	c #933808",
".@	c #B05012",
"+@	c #AFC256",
"@@	c #5CBD65",
"#@	c #7DC858",
"$@	c #CF9041",
"%@	c #9A3D13",
"&@	c #9B3F0C",
"*@	c #EA9F45",
"=@	c #CF9C41",
"-@	c #51B079",
";@	c #71C65A",
">@	c #A3C456",
",@	c #C86D31",
"'@	c #963911",
")@	c #903507",
"!@	c #A4451A",
"~@	c #AC4D16",
"{@	c #A14610",
"]@	c #91350E",
"^@	c #CA7A30",
"/@	c #98C657",
"(@	c #63BB6C",
"_@	c #72C65A",
":@	c #AFBC53",
"<@	c #C16529",
"[@	c #8A3109",
"}@	c #8D330A",
"|@	c #AD4E20",
"1@	c #862F09",
"2@	c #C67032",
"3@	c #A3BF54",
"4@	c #53B278",
"5@	c #5CB772",
"6@	c #73C759",
"7@	c #A5BF54",
"8@	c #CA7B31",
"9@	c #CD8737",
"0@	c #9FC356",
"a@	c #5BB673",
"b@	c #6AC164",
"c@	c #71C65B",
"d@	c #88C657",
"e@	c #BDA948",
"f@	c #C57129",
"g@	c #C0682A",
"h@	c #C0672A",
"i@	c #C97C32",
"j@	c #B8AC49",
"k@	c #82C857",
"l@	c #58B575",
"m@	c #65BD69",
"n@	c #6EC45F",
"o@	c #68BF67",
"p@	c #6CBC67",
"q@	c #76C35C",
"r@	c #6AC065",
"s@	c #6DC360",
"t@	c #55B277",
"u@	c #63BC6B",
"v@	c #55B377",
"w@	c #53B179",
"x@	c #6CC262",
"y@	c #69C066",
"z@	c #5AB673",
"A@	c #4DAE7C",
"B@	c #54B278",
"C@	c #5EB870",
"D@	c #52B179",
"E@	c #6EC35F",
"F@	c #5BB772",
"G@	c #6FC45E",
"H@	c #65BD6A",
"I@	c #53B178",
"                                                                                                                                ",
"                                                                                                                                ",
"                                                                                                                                ",
"                                                                                                                                ",
"                                                                                                                                ",
"                                                                                                                                ",
"                                                                                                                                ",
"                                                                                                                                ",
"                                                                                                                                ",
"                                                                                                                                ",
"                                                                                                                                ",
"                                                                                                                                ",
"                                                                                                                                ",
"                                                                                                                                ",
"                                                                                                                                ",
"                                                                                                                                ",
"                                                                                                                                ",
"                                      . + @ # $ $ # @ +                   . % # & * = +                                         ",
"                                    % + - ; > , , > ; -         % +   + % + ' ) ! ~ { -                                         ",
"                                  ] ^ / { ( _ : : _ < [ =   } | & 1 2 = 3 / 4 5 6 7 ( [ =   .                                   ",
"                                $ 8 9 0 a b c d d c e f [ g $ h i j k l m 0 n o p q b f [ g $ $ +                               ",
"                              ] r s t u v w x y y x z b A B C D E F G H I u J K L x z b M N O r g                               ",
"                              = P Q R x S x x x x x x q T U V W X Y Z `  .S x x x x x q ..+.@.P '                               ",
"                              $ #.$.%.&.x x x x x x x x z *.=.-.;.>.,.'.).x x x x x x x z !.~.#.$                               ",
"                                  {.].^./.x x x x x x (._.:.<.[.}.|.1.2.3.x x x x x x /.^.].{.                                  ",
"                                  4.5.6.d 7.x x x 8.9.0.a.b.c.d.e.f.g.a.h.i.j.x x x 7.d 6.5.4.                                  ",
"                                  k.l.m.d &.x x n.o.p.q.r.s.t.u.v.w.x.q.y.z.A.B.x x &.d m.l.k.                                  ",
"                                  C.4.D.E.x x F.G.H.I.J.K.L.` y.y.Z L.K.J.I.M.N.O.x x E.D.4.C.                                  ",
"                                    l.5.P.Q.R.S.T.U.V.G W.X.X.W.Y.X.Z.W.G y.`. +.+R.Q.P.5.l.                                    ",
"                                      $ ++@+#+$+%+&+*+=+-+Y.Z.;+>+X.,+-+=+*+'+v.)+/.@+++$                                       ",
"                                    + 1 !+~+{+]+^+s./+V.(+_+G :+<+K.[+}+V./+|+v.]+1+~+!+1 +                                     ",
"                                    % & 2+3+4+5+u.6+7+8+r.9+&+0+a+&+9+r.8+b+t.c+d+e+3+2+& %                                     ",
"                                      f+g+h+i+d+j+k+|+b+p.0+a+:+l+a+a+m+b+|+^+n+o+p+h+g+f+                                      ",
"                                      k.q+r+s+o+t+u+M.|+a+0+v+l+w+m+a+0+|+k+x+y+z+A+r+q+k.                                      ",
"                                    % B+C+D+E+F+G+H+u.z.&+0+z.l+&+z.U.&+I+x+J+G+K+L+D+C+B+%                                     ",
"                                  ' M+/ N+O+/.P+Q+d+n+x+I+z.z.a+a+z.R+I+S+T+d+U+V+/.O+N+/ M+'                                   ",
"                                  W+X+! Y+Z+S `+z+ @d+t+u.R+I+a+a+I+I+S+.@d+ @F++@S Z+Y+! X+W+                                  ",
"                                  ] 8 @@b z x #@$@%@ @&@z.u+R+z.R+*@e.F+I+ @&@=@x x z b @@8 ]                                   ",
"                                  C.-@m.;@7.x x >@,@'@)@!@&@~@z.I+{@ @ @]@Q+^@/@x x 7.;@m.-@C.                                  ",
"                                  k.4.(@_@y x x x :@<@'@[@[@}@|@&@[@1@[@'@2@3@x x x y _@(@4.k.                                  ",
"                                  4@5@].6@7.x x x x 7@8@!@'@}@}@}@}@'@!@9@0@x x x x 7.6@].5@4@                                  ",
"                                  a@b@c@R.x x x x x x d@e@f@T+g@h@T+i@j@k@x x x x x x R.c@b@a@                                  ",
"                                  l@m@n@x 7.x 7.7.x 7.R.Q.o@p@b@c@q@r@s@x &.7.x x x 7.x n@m@l@                                  ",
"                                  l.t@u@E.x R.6@6@R.x E.u@v@w@5@x@y@z@(@E.d d /.x x R.E.u@t@l.                                  ",
"                                  C.  5.u@n@c@].].c@n@u@5.  A@B@C@5@D@5.D.m.6.^.&.7.E@u@5.  C.                                  ",
"                                        t@m@b@F@F@b@m@t@        4.l.  l.4.l.5.].E.G@H@t@                                        ",
"                                      C.l.l@a@I@I@a@l@l.C.      C.C.    C.k.-@{.C@C@5.l.C.                                      ",
"                                                                                                                                ",
"                                                                                                                                ",
"                                                                                                                                ",
"                                                                                                                                ",
"                                                                                                                                ",
"                                                                                                                                ",
"                                                                                                                                ",
"                                                                                                                                ",
"                                                                                                                                ",
"                                                                                                                                ",
"                                                                                                                                ",
"                                                                                                                                ",
"                                                                                                                                ",
"                                                                                                                                ",
"                                                                                                                                ",
"                                                                                                                                ",
"                                                                                                                                "};
