/* XPM */
static char * grass_xpm[] = {
"64 64 232 2",
"  	c #4FAF7B",
". 	c #51B07A",
"+ 	c #53B178",
"@ 	c #52B179",
"# 	c #59B574",
"$ 	c #6BC163",
"% 	c #74C857",
"& 	c #6AC064",
"* 	c #52B079",
"= 	c #57B476",
"- 	c #68BF66",
"; 	c #6EC35F",
"> 	c #5DB871",
", 	c #50B07A",
"' 	c #50AF7B",
") 	c #50AF7A",
"! 	c #55B277",
"~ 	c #65BD69",
"{ 	c #72C759",
"] 	c #75C956",
"^ 	c #6FC45F",
"/ 	c #5EB870",
"( 	c #69C065",
"_ 	c #58B475",
": 	c #53B179",
"< 	c #53B278",
"[ 	c #6CC262",
"} 	c #6BC263",
"| 	c #5AB673",
"1 	c #56B376",
"2 	c #66BE68",
"3 	c #73C759",
"4 	c #6EC360",
"5 	c #5DB771",
"6 	c #51B079",
"7 	c #64BC6B",
"8 	c #68BF67",
"9 	c #6FC55D",
"0 	c #6FC45E",
"a 	c #67BF67",
"b 	c #65BD6A",
"c 	c #67BE68",
"d 	c #6EC45F",
"e 	c #5CB772",
"f 	c #55B377",
"g 	c #60BA6E",
"h 	c #4DAE7C",
"i 	c #4EAE7C",
"j 	c #5FB96F",
"k 	c #54B278",
"l 	c #6DC360",
"m 	c #73C758",
"n 	c #74C856",
"o 	c #71C65B",
"p 	c #6AC065",
"q 	c #67BE67",
"r 	c #63BB6C",
"s 	c #4EAF7B",
"t 	c #58B575",
"u 	c #63BC6B",
"v 	c #6BC262",
"w 	c #70C55D",
"x 	c #73C858",
"y 	c #64BD6A",
"z 	c #57B475",
"A 	c #74C858",
"B 	c #6DC361",
"C 	c #62BB6D",
"D 	c #62BB6C",
"E 	c #63BC6C",
"F 	c #70C55C",
"G 	c #61BA6D",
"H 	c #72C75A",
"I 	c #6CC261",
"J 	c #72C65A",
"K 	c #71C55C",
"L 	c #75C856",
"M 	c #6AC164",
"N 	c #65B96C",
"O 	c #6CBF64",
"P 	c #6DC162",
"Q 	c #66BA6B",
"R 	c #52A87D",
"S 	c #62B66F",
"T 	c #72C65B",
"U 	c #54AA7B",
"V 	c #4EAA7E",
"W 	c #60B770",
"X 	c #64BB6B",
"Y 	c #50AB7C",
"Z 	c #6CC064",
"` 	c #6CC063",
" .	c #70C45D",
"..	c #71C55B",
"+.	c #57AC79",
"@.	c #57AC7A",
"#.	c #5AAF77",
"$.	c #69BD68",
"%.	c #5CB175",
"&.	c #4CA680",
"*.	c #52AA7C",
"=.	c #6ABE66",
"-.	c #5FB372",
";.	c #54AB7B",
">.	c #4DA77F",
",.	c #50AE7B",
"'.	c #5EB771",
").	c #6DC261",
"!.	c #6FC35F",
"~.	c #62B96D",
"{.	c #52AF7A",
"].	c #51B179",
"^.	c #75C955",
"/.	c #60B96F",
"(.	c #74C758",
"_.	c #56B177",
":.	c #61B570",
"<.	c #74C956",
"[.	c #6FC260",
"}.	c #63B76E",
"|.	c #58B176",
"1.	c #51AF7A",
"2.	c #51A97D",
"3.	c #62B76F",
"4.	c #65BA6B",
"5.	c #4DA97E",
"6.	c #4FAE7B",
"7.	c #4EAD7C",
"8.	c #4EAB7D",
"9.	c #54AD7A",
"0.	c #56AD79",
"a.	c #4FAB7D",
"b.	c #4EAC7D",
"c.	c #53AD7B",
"d.	c #6EC260",
"e.	c #5FB472",
"f.	c #6EC261",
"g.	c #63BA6C",
"h.	c #55B278",
"i.	c #61BB6D",
"j.	c #66BD69",
"k.	c #71C65C",
"l.	c #5BB672",
"m.	c #64B86D",
"n.	c #64B86E",
"o.	c #66BA6A",
"p.	c #50A77E",
"q.	c #51A77E",
"r.	c #67BB69",
"s.	c #6BBF65",
"t.	c #5AAE77",
"u.	c #57AF78",
"v.	c #6EC161",
"w.	c #5AB176",
"x.	c #4FAA7D",
"y.	c #61BA6E",
"z.	c #65BC6A",
"A.	c #5DB672",
"B.	c #60B86F",
"C.	c #52AD7B",
"D.	c #59AF77",
"E.	c #69BC68",
"F.	c #4DAB7E",
"G.	c #4FA97E",
"H.	c #5CB274",
"I.	c #69BD67",
"J.	c #71C45D",
"K.	c #72C55B",
"L.	c #60B571",
"M.	c #51AA7D",
"N.	c #4DAA7E",
"O.	c #4FAE7C",
"P.	c #4FAD7C",
"Q.	c #51AB7C",
"R.	c #5EB274",
"S.	c #52AB7C",
"T.	c #58B177",
"U.	c #70C45E",
"V.	c #5AB276",
"W.	c #56B377",
"X.	c #69BF66",
"Y.	c #5CB771",
"Z.	c #6CC162",
"`.	c #54AF79",
" +	c #5DB274",
".+	c #55AF79",
"++	c #5AB076",
"@+	c #5DB175",
"#+	c #58B077",
"$+	c #59B474",
"%+	c #6CC163",
"&+	c #68BC68",
"*+	c #6BBE65",
"=+	c #6BBF64",
"-+	c #6DC161",
";+	c #6ABD67",
">+	c #5EB373",
",+	c #58AD79",
"'+	c #53A97C",
")+	c #5BB076",
"!+	c #60B471",
"~+	c #61B571",
"{+	c #54A97C",
"]+	c #52A97D",
"^+	c #54AA7C",
"/+	c #62B670",
"(+	c #65BA6C",
"_+	c #67BB6A",
":+	c #6FC360",
"<+	c #5BB275",
"[+	c #54AE7A",
"}+	c #50AA7D",
"|+	c #4BA780",
"1+	c #4CA780",
"2+	c #51AC7C",
"3+	c #5FB770",
"4+	c #52AC7B",
"5+	c #55AD7A",
"6+	c #6DC063",
"7+	c #57B078",
"8+	c #4CA87F",
"9+	c #4DA87F",
"0+	c #57B177",
"a+	c #62BA6D",
"b+	c #6BC064",
"c+	c #70C35E",
"d+	c #64BC6A",
"e+	c #5BB474",
"f+	c #53B079",
"g+	c #56AB7A",
"h+	c #4EA480",
"i+	c #59B475",
"  . + @ # $ % % & # * = - ; > , @ @ '       ' @ @ , ) ! ~ { ] ^ / / ; ( _ @ : .         . : < : ) # [ } | @ 1 2 3 ] 4 5 : + 6   ",
"  # 7 ~ 8 9 % % 0 a b c 0 d e f g / * h i i + j j k = 7 l m n o p & o 0 q ~ r _ s i i   t u 2 r = t v w - b 2 l x n o ( ~ y e . ",
"z 7 o x m A % % A m 3 m % 9 g j B & | f 1 f e v [ > C w % % % % m m % A m x w D 1 f f = E F % w G / B % m 3 3 x % % % m m H a # ",
"& d A ] n % % % % n n n n H B I J K $ ( ( ( v o o [ 4 m n % % % n % % % n ] m 4 p ( ( p ; x ] m l [ o % n n n % % % % n L % w M ",
"% % % % % % % % % % % % % % % % % % % % % % % % % % % % % % % % % % % % % % % % % % % % % % % % % % % % % % % % % % % % % % % % ",
"% % % % % % % % % % % % % % % % % % % % % % % % % % % % % % % % % % % % % % % % % % % % % % % % % % % % % % % % % % % % % % % % ",
"n % % % % % % % % % % % % % % % % % % % % % % % % % % % % % % % % % % % % % % % % % % % % % % % % % % % % % % % % % % % % % % n ",
"3 m % % % % % % % % % % % % % % % % % % % % % % % % % % % % % % % % % % % % % % % % % % % % % % % % % % % % % % % % % % % % m 3 ",
"N O 3 n % % % % % % % % % % % % % % % % % % % % % % % % % % % % % % % % % % % % % % % % % % % % % % % % % % % % % % % % % A P Q ",
"R S T ] % % % % % % % % % % % % % % % % % % % % % % % % % % % % % % % % % % % % % % % % % % % % % % % % % % % % % % % % n 3 Q U ",
"V W o ] % % % % % % % % % % % % % % % % % % % % % % % % % % % % % % % % % % % % % % % % % % % % % % % % % % % % % % % % n 3 X Y ",
"z b J L % % % % % % % % % % % % % % % % % % % % % % % % % % % % % % % % % % % % % % % % % % % % % % % % % % % % % % % % n m 8 # ",
"M 0 A n % % % % % % % % % % % % % % % % % % % % % % % % % % % % % % % % % % % % % % % % % % % % % % % % % % % % % % % % % % w $ ",
"Z O `  .% % % % % % % % % % % % % % % % % % % % % % % % % % % % % % % % % % % % % % % % % % % % % % % % % % % % % % % % ..P O Z ",
"+.@.#.$.m n % % % % % % % % % % % % % % % % % % % % % % % % % % % % % % % % % % % % % % % % % % % % % % % % % % % % % % Z %.@.+.",
"&.*.%.=.m n % % % % % % % % % % % % % % % % % % % % % % % % % % % % % % % % % % % % % % % % % % % % % % % % % % % % % % P -.;.>.",
",.'.).J % % % % % % % % % % % % % % % % % % % % % % % % % % % % % % % % % % % % % % % % % % % % % % % % % % % % % % % % 3 !.~.{.",
"].D 3 ^.% % % % % % % % % % % % % % % % % % % % % % % % % % % % % % % % % % % % % % % % % % % % % % % % % % % % % % % % ] % 2 k ",
". /.0 m % % % % % % % % % % % % % % % % % % % % % % % % % % % % % % % % % % % % % % % % % % % % % % % % % % % % % % % % (.K 7 + ",
"' _.:.` % <.% % % % % % % % % % % % % % % % % % % % % % % % % % % % % % % % % % % % % % % % % % % % % % % % % % % % n n [.}.|.1.",
"  V 2.3.!.3 % % % % % % % % % % % % % % % % % % % % % % % % % % % % % % % % % % % % % % % % % % % % % % % % % % % % 3  .4.;.5.6.",
"  7.8.9.-.P % % % % % % % % % % % % % % % % % % % % % % % % % % % % % % % % % % % % % % % % % % % % % % % % % % % n !.S 0.a.b.  ",
"      c.%.Z % % % % % % % % % % % % % % % % % % % % % % % % % % % % % % % % % % % % % % % % % % % % % % % % % % % n d.e.9.,.    ",
"  s @ /.` T % % % % % % % % % % % % % % % % % % % % % % % % % % % % % % % % % % % % % % % % % % % % % % % % % % % % J f.g.h.s   ",
"' f j v % n % % % % % % % % % % % % % % % % % % % % % % % % % % % % % % % % % % % % % % % % % % % % % % % % % % % % % % 4 G = . ",
". j 4 3 % % % % % % % % % % % % % % % % % % % % % % % % % % % % % % % % % % % % % % % % % % % % % % % % % % % % % % % % 3 0 D : ",
", i.H ] % % % % % % % % % % % % % % % % % % % % % % % % % % % % % % % % % % % % % % % % % % % % % % % % % % % % % % % % ] x j.: ",
"! u J L % % % % % % % % % % % % % % % % % % % % % % % % % % % % % % % % % % % % % % % % % % % % % % % % % % % % % % % % n m c = ",
"q ).3 % % % % % % % % % % % % % % % % % % % % % % % % % % % % % % % % % % % % % % % % % % % % % % % % % % % % % % % % % % A d 8 ",
"d k.A % % % % % % % % % % % % % % % % % % % % % % % % % % % % % % % % % % % % % % % % % % % % % % % % % % % % % % % % % % % o 0 ",
"j - { n % % % % % % % % % % % % % % % % % % % % % % % % % % % % % % % % % % % % % % % % % % % % % % % % % % % % % % % % % m $ g ",
"l.2 H n % % % % % % % % % % % % % % % % % % % % % % % % % % % % % % % % % % % % % % % % % % % % % % % % % % % % % % % % n m ( 5 ",
"B w x % % % % % % % % % % % % % % % % % % % % % % % % % % % % % % % % % % % % % % % % % % % % % % % % % % % % % % % % % % % K l ",
"] ] n % % % % % % % % % % % % % % % % % % % % % % % % % % % % % % % % % % % % % % % % % % % % % % % % % % % % % % % % % % n ] ] ",
"3 3 3 m % % % % % % % % % % % % % % % % % % % % % % % % % % % % % % % % % % % % % % % % % % % % % % % % % % % % % % % % A 3 3 3 ",
"m.n.N P m % % % % % % % % % % % % % % % % % % % % % % % % % % % % % % % % % % % % % % % % % % % % % % % % % % % % % % % !.o.n.m.",
"p.q.@.r.3 n % % % % % % % % % % % % % % % % % % % % % % % % % % % % % % % % % % % % % % % % % % % % % % % % % % % % % % s.t.q.p.",
"5.u.m.v.m % % % % % % % % % % % % % % % % % % % % % % % % % % % % % % % % % % % % % % % % % % % % % % % % % % % % % % % !.Q w.x.",
". y.K % % % % % % % % % % % % % % % % % % % % % % % % % % % % % % % % % % % % % % % % % % % % % % % % % % % % % % % % % % J z.: ",
". D { ^.% % % % % % % % % % % % % % % % % % % % % % % % % % % % % % % % % % % % % % % % % % % % % % % % % % % % % % % % ] % 2 k ",
". A.s.K % % % % % % % % % % % % % % % % % % % % % % % % % % % % % % % % % % % % % % % % % % % % % % % % % % % % % % % % J P B.@ ",
"  C.D.E.3 n % % % % % % % % % % % % % % % % % % % % % % % % % % % % % % % % % % % % % % % % % % % % % % % % % % % % % % O %.c.' ",
"  F.G.H.I.J.% % % % % % % % % % % % % % % % % % % % % % % % % % % % % % % % % % % % % % % % % % % % % % % % % % % % K.s.L.M.N.6.",
"  O.P.Q.#.s.% % % % % % % % % % % % % % % % % % % % % % % % % % % % % % % % % % % % % % % % % % % % % % % % % % % n f.R.S.P.i   ",
"  s ' T.3.f.% % % % % % % % % % % % % % % % % % % % % % % % % % % % % % % % % % % % % % % % % % % % % % % % % % % % U.N V.1.s   ",
"  , W.~ K m % % % % % % % % % % % % % % % % % % % % % % % % % % % % % % % % % % % % % % % % % % % % % % % % % % % % A T X.t ,   ",
", | 2 0 % n % % % % % % % % % % % % % % % % % % % % % % % % % % % % % % % % % % % % % % % % % % % % % % % % % % % % % n k.- Y.@ ",
". '.Z.T % % % % % % % % % % % % % % % % % % % % % % % % % % % % % % % % % % % % % % % % % % % % % % % % % % % % % % % % J d.y.@ ",
"  `. +=.m n % % % % % % % % % % % % % % % % % % % % % % % % % % % % % % % % % % % % % % % % % % % % % % % % % % % % % % P e..+' ",
"# T.++E.m n % % % % % % % % % % % % % % % % % % % % % % % % % % % % % % % % % % % % % % % % % % % % % % % % % % % % % % O @+#+$+",
").Z.P  .% % % % % % % % % % % % % % % % % % % % % % % % % % % % % % % % % % % % % % % % % % % % % % % % % % % % % % % % ..P %+).",
"] ] n % % % % % % % % % % % % % % % % % % % % % % % % % % % % % % % % % % % % % % % % % % % % % % % % % % % % % % % % % % n ] ] ",
"m x % % % % % % % % % % % % % % % % % % % % % % % % % % % % % % % % % % % % % % % % % % % % % % % % % % % % % % % % % % % % A m ",
"j.[ 3 % % % % % % % % % % % % % % % % % % % % % % % % % % % % % % % % % % % % % % % % % % % % % % % % % % % % % % % % % % A 4 2 ",
"_ b J n % % % % % % % % % % % % % % % % % % % % % % % % % % % % % % % % % % % % % % % % % % % % % % % % % % % % % % % % n m - | ",
"j.[ 3 % % % % % % % % % % % % % % % % % % % % % % % % % % % % % % % % % % % % % % % % % % % % % % % % % % % % % % % % % % A 4 2 ",
"3 x % % % % % % % % % % % % % % % % % % % % % % % % % % % % % % % % % % % % % % % % % % % % % % % % % % % % % % % % % % % % A m ",
"n % % % % % % % % % % % % % % % % % % % % % % % % % % % % % % % % % % % % % % % % % % % % % % % % % % % % % % % % % % % % % % n ",
"% % % % % % % % % % % % % % % % % % % n % n % % % % % % % % % % % % % % % % % % % n n % % % % % % % % % % % % % % % % % % % % % ",
"% % % % % % % % % % % % % % % % % % % % % % % % % % % % % % % % % % % % % % % % % % % % % % % % % % % % % % % % % % % % % % % % ",
"& d A ] n % % % % n ] n n J ` Z T  .=.&+&+&+*+K K =+P 3 <.% % % n % % % n ] 3 P E.&+&+E.-+m ^.3 P s.K % n ] n % % % % n ] % !.;+",
"z 7 k.m 3 A % % A 3 3 3 % !.>+ +P I.,+R '+R #.s.=+)+!+U.% % % % m m % A m x U.~+{+]+R ^+/+ .% 0 !+%.` % 3 3 3 m % % % m x J o.@.",
"  # u (+_+!.% % :+o.}.Q d.d.<+[+B.A.}+|+1+|+2+3+3+4+5+3.6+3 L o p & o 0 q ~ r 7+8+|+|+9+0+r 2 a+.+u.b+c+_+}.N P m n o ( ~ d+e+G.",
"  . f+M.+.=.% % I.g+h+^+r.4 5 ' * * 6.O.O.O.' * @ ,.V ]+n.J ^.^ / / ; ( _ @ : ) O.O.O.O.1.: < : ' i+[ *++.h+'+N 3 ] 4 5 : + . 6."};
