/* XPM */
static char * player_left_xpm[] = {
"64 64 652 2",
"  	c #4FAF7B",
". 	c #51B07A",
"+ 	c #53B178",
"@ 	c #52B179",
"# 	c #59B574",
"$ 	c #6BC163",
"% 	c #74C857",
"& 	c #6AC064",
"* 	c #52B079",
"= 	c #57B476",
"- 	c #68BF66",
"; 	c #6EC35F",
"> 	c #5DB871",
", 	c #50B07A",
"' 	c #50AF7B",
") 	c #50AF7A",
"! 	c #55B277",
"~ 	c #65BD69",
"{ 	c #72C759",
"] 	c #75C956",
"^ 	c #6FC45F",
"/ 	c #5EB870",
"( 	c #69C065",
"_ 	c #58B475",
": 	c #53B179",
"< 	c #53B278",
"[ 	c #6CC262",
"} 	c #6BC263",
"| 	c #5AB673",
"1 	c #56B376",
"2 	c #66BE68",
"3 	c #73C759",
"4 	c #6EC360",
"5 	c #5DB771",
"6 	c #51B079",
"7 	c #64BC6B",
"8 	c #68BF67",
"9 	c #6FC55D",
"0 	c #6FC45E",
"a 	c #67BF67",
"b 	c #65BD6A",
"c 	c #67BE68",
"d 	c #6EC45F",
"e 	c #5CB772",
"f 	c #55B377",
"g 	c #60BA6E",
"h 	c #4DAE7C",
"i 	c #4EAE7C",
"j 	c #5FB96F",
"k 	c #54B278",
"l 	c #6DC360",
"m 	c #73C758",
"n 	c #74C856",
"o 	c #71C65B",
"p 	c #6AC065",
"q 	c #67BE67",
"r 	c #63BB6C",
"s 	c #4EAF7B",
"t 	c #58B575",
"u 	c #63BC6B",
"v 	c #6BC262",
"w 	c #70C55D",
"x 	c #73C858",
"y 	c #64BD6A",
"z 	c #57B475",
"A 	c #74C858",
"B 	c #6DC361",
"C 	c #62BB6D",
"D 	c #76C056",
"E 	c #8FB763",
"F 	c #8AAF5D",
"G 	c #6DB34F",
"H 	c #6DB74F",
"I 	c #6DB851",
"J 	c #6DBB52",
"K 	c #71C456",
"L 	c #62BB6C",
"M 	c #63BC6C",
"N 	c #70C55C",
"O 	c #61BA6D",
"P 	c #72C75A",
"Q 	c #6CC261",
"R 	c #72C65A",
"S 	c #71C55C",
"T 	c #73C056",
"U 	c #83AB57",
"V 	c #6A7E3B",
"W 	c #90574B",
"X 	c #996158",
"Y 	c #7C3A33",
"Z 	c #783028",
"` 	c #80362D",
" .	c #82443E",
"..	c #B37C70",
"+.	c #BA937E",
"@.	c #AD9974",
"#.	c #89A063",
"$.	c #67B861",
"%.	c #75C856",
"&.	c #6AC164",
"*.	c #80BA59",
"=.	c #B0B17C",
"-.	c #928058",
";.	c #686632",
">.	c #894438",
",.	c #89463E",
"'.	c #A56C61",
").	c #AF776B",
"!.	c #944E44",
"~.	c #A35447",
"{.	c #A7594C",
"].	c #97493E",
"^.	c #C59184",
"/.	c #F5D6C6",
"(.	c #F9DCCB",
"_.	c #F3D1C0",
":.	c #DFB5A5",
"<.	c #B68575",
"[.	c #708F48",
"}.	c #70BF53",
"|.	c #73C757",
"1.	c #78984C",
"2.	c #AA7266",
"3.	c #925A52",
"4.	c #823F38",
"5.	c #EFCBBA",
"6.	c #FCE4D4",
"7.	c #FDE6CD",
"8.	c #BA6B5B",
"9.	c #B47262",
"0.	c #9D584C",
"a.	c #FDF1DB",
"b.	c #603524",
"c.	c #6F904D",
"d.	c #72C255",
"e.	c #73C656",
"f.	c #6AA64B",
"g.	c #645F33",
"h.	c #72322D",
"i.	c #A66456",
"j.	c #D7AA9B",
"k.	c #FEF7E4",
"l.	c #FEFCEA",
"m.	c #FEF3E0",
"n.	c #FCE1CD",
"o.	c #B06D5E",
"p.	c #D88A73",
"q.	c #AD5F51",
"r.	c #CD927E",
"s.	c #D9A38E",
"t.	c #C78B79",
"u.	c #9B5B51",
"v.	c #5F2220",
"w.	c #67413B",
"x.	c #96945E",
"y.	c #7DBE59",
"z.	c #73C456",
"A.	c #9DA769",
"B.	c #D3AC98",
"C.	c #E2BAAB",
"D.	c #BD877A",
"E.	c #904339",
"F.	c #B46455",
"G.	c #FDEADA",
"H.	c #FDEAD3",
"I.	c #DE8B71",
"J.	c #D19884",
"K.	c #CC7D69",
"L.	c #9D4F43",
"M.	c #894037",
"N.	c #7A342D",
"O.	c #682A28",
"P.	c #743D3B",
"Q.	c #A77B7E",
"R.	c #80B671",
"S.	c #65B96C",
"T.	c #6CBF64",
"U.	c #75C156",
"V.	c #B49A7B",
"W.	c #9F665C",
"X.	c #C77663",
"Y.	c #EBC5B5",
"Z.	c #E6B29D",
"`.	c #D47F67",
" +	c #E7C0AF",
".+	c #BE7362",
"++	c #6D2E2A",
"@+	c #6B3331",
"#+	c #886D82",
"$+	c #73B95E",
"%+	c #6DC162",
"&+	c #66BA6B",
"*+	c #52A87D",
"=+	c #62B66F",
"-+	c #72C65B",
";+	c #71BF53",
">+	c #937E58",
",+	c #CE9D8F",
"'+	c #985449",
")+	c #AB685A",
"!+	c #DEA893",
"~+	c #EBBCA6",
"{+	c #D18C77",
"]+	c #E5967A",
"^+	c #E89E83",
"/+	c #D2846E",
"(+	c #C28471",
"_+	c #B88276",
":+	c #D3A495",
"<+	c #A9809D",
"[+	c #784B5B",
"}+	c #968598",
"|+	c #73B958",
"1+	c #54AA7B",
"2+	c #4EAA7E",
"3+	c #60B770",
"4+	c #70B850",
"5+	c #725534",
"6+	c #8F493F",
"7+	c #C99789",
"8+	c #D9856C",
"9+	c #E99A7E",
"0+	c #F3AB8E",
"a+	c #EBA68C",
"b+	c #D7937D",
"c+	c #DE9078",
"d+	c #CCA5A7",
"e+	c #815C77",
"f+	c #887081",
"g+	c #87C17F",
"h+	c #64BB6B",
"i+	c #50AB7C",
"j+	c #6DB54F",
"k+	c #BB927F",
"l+	c #EEA184",
"m+	c #F2A688",
"n+	c #EBAC94",
"o+	c #DBAFA1",
"p+	c #663139",
"q+	c #9A8DA8",
"r+	c #72C256",
"s+	c #6FB650",
"t+	c #74513D",
"u+	c #BB6754",
"v+	c #C3705D",
"w+	c #DE9981",
"x+	c #CF7962",
"y+	c #896783",
"z+	c #9CA8A7",
"A+	c #74C757",
"B+	c #6CC064",
"C+	c #6CC063",
"D+	c #70C45D",
"E+	c #70BC52",
"F+	c #6E4D30",
"G+	c #B55E4B",
"H+	c #E39075",
"I+	c #F9D0B8",
"J+	c #7B413E",
"K+	c #8BA284",
"L+	c #71C55B",
"M+	c #57AC79",
"N+	c #57AC7A",
"O+	c #5AAF77",
"P+	c #69BD68",
"Q+	c #74C456",
"R+	c #9EA66A",
"S+	c #6C4D35",
"T+	c #F4B194",
"U+	c #652622",
"V+	c #753732",
"W+	c #96B99B",
"X+	c #5CB175",
"Y+	c #4CA680",
"Z+	c #52AA7C",
"`+	c #6ABE66",
" @	c #76C457",
".@	c #AE9371",
"+@	c #FCBE9D",
"@@	c #FAB697",
"#@	c #722D25",
"$@	c #B6A5CC",
"%@	c #7FC171",
"&@	c #5FB372",
"*@	c #54AB7B",
"=@	c #4DA77F",
"-@	c #50AE7B",
";@	c #5EB771",
">@	c #6DC261",
",@	c #788E4A",
"'@	c #642E2F",
")@	c #E2A089",
"!@	c #F8BBA3",
"~@	c #F0C0A9",
"{@	c #FBD5BE",
"]@	c #FDC6A5",
"^@	c #FDD9B7",
"/@	c #FDCFAD",
"(@	c #CA725B",
"_@	c #C98672",
":@	c #A25F52",
"<@	c #A9767F",
"[@	c #A5B1B2",
"}@	c #6FC35F",
"|@	c #62B96D",
"1@	c #52AF7A",
"2@	c #51B179",
"3@	c #75C955",
"4@	c #6CB750",
"5@	c #5B3F28",
"6@	c #823B32",
"7@	c #C37C69",
"8@	c #E1AE99",
"9@	c #F0B59D",
"0@	c #C36B55",
"a@	c #AA7166",
"b@	c #A998BE",
"c@	c #60B96F",
"d@	c #6FBA51",
"e@	c #664829",
"f@	c #BC624C",
"g@	c #89514E",
"h@	c #592223",
"i@	c #8EA592",
"j@	c #74C758",
"k@	c #56B177",
"l@	c #61B570",
"m@	c #72C554",
"n@	c #635A2E",
"o@	c #873B31",
"p@	c #893529",
"q@	c #A04939",
"r@	c #A74F3E",
"s@	c #5D272F",
"t@	c #987E9B",
"u@	c #76BD5C",
"v@	c #6FC260",
"w@	c #63B76E",
"x@	c #58B176",
"y@	c #51AF7A",
"z@	c #51A97D",
"A@	c #62B76F",
"B@	c #658740",
"C@	c #90544B",
"D@	c #5A1C18",
"E@	c #6D2821",
"F@	c #69231B",
"G@	c #903C30",
"H@	c #602727",
"I@	c #A3B2AF",
"J@	c #65BA6B",
"K@	c #4DA97E",
"L@	c #4FAE7B",
"M@	c #4EAD7C",
"N@	c #4EAB7D",
"O@	c #54AD7A",
"P@	c #5AA469",
"Q@	c #682E29",
"R@	c #8D4D45",
"S@	c #4D1A1B",
"T@	c #531E20",
"U@	c #BF8D81",
"V@	c #984234",
"W@	c #70BA66",
"X@	c #56AD79",
"Y@	c #4FAB7D",
"Z@	c #4EAC7D",
"`@	c #53AD7B",
" #	c #56734D",
".#	c #4D1412",
"+#	c #FDE0C6",
"@#	c #AE5A49",
"##	c #8D7090",
"$#	c #95B59F",
"%#	c #5FB472",
"&#	c #5FB66D",
"*#	c #543325",
"=#	c #46181B",
"-#	c #D69D88",
";#	c #F3C5AE",
">#	c #4A1D29",
",#	c #6B415C",
"'#	c #9CA6AA",
")#	c #6EC261",
"!#	c #63BA6C",
"~#	c #55B278",
"{#	c #62AA56",
"]#	c #461211",
"^#	c #BC7E6D",
"/#	c #B97867",
"(#	c #FCDAC3",
"_#	c #621E18",
":#	c #997C9C",
"<#	c #958896",
"[#	c #639D47",
"}#	c #551714",
"|#	c #7C5369",
"1#	c #AA97BE",
"2#	c #61BB6D",
"3#	c #5F9841",
"4#	c #3E1417",
"5#	c #3F0D0C",
"6#	c #9D85AE",
"7#	c #88BA84",
"8#	c #66BD69",
"9#	c #64A145",
"0#	c #643750",
"a#	c #AEABC0",
"b#	c #6BB54F",
"c#	c #844C46",
"d#	c #330B0C",
"e#	c #F6CAB3",
"f#	c #381014",
"g#	c #27020A",
"h#	c #2C080E",
"i#	c #87BB81",
"j#	c #71C65C",
"k#	c #464824",
"l#	c #55232A",
"m#	c #7C4746",
"n#	c #FEF6ED",
"o#	c #2B0303",
"p#	c #5E293C",
"q#	c #9BA9A7",
"r#	c #5E9742",
"s#	c #6D3739",
"t#	c #6B3A44",
"u#	c #BF9094",
"v#	c #FDEED6",
"w#	c #FFFEF6",
"x#	c #9C88AC",
"y#	c #72C557",
"z#	c #5BB672",
"A#	c #72C455",
"B#	c #49512E",
"C#	c #3F1624",
"D#	c #74B667",
"E#	c #6CB34E",
"F#	c #56302C",
"G#	c #86B282",
"H#	c #66A849",
"I#	c #6B4044",
"J#	c #744146",
"K#	c #6E4867",
"L#	c #89AC89",
"M#	c #68A849",
"N#	c #644050",
"O#	c #724450",
"P#	c #5A2E49",
"Q#	c #64B86D",
"R#	c #64B86E",
"S#	c #6CB14D",
"T#	c #725C51",
"U#	c #7EA988",
"V#	c #50A77E",
"W#	c #51A77E",
"X#	c #67BB69",
"Y#	c #71C054",
"Z#	c #7D886F",
"`#	c #E8B7A1",
" $	c #5AA274",
".$	c #57AF78",
"+$	c #6EC161",
"@$	c #6DA64C",
"#$	c #7B6667",
"$$	c #86859B",
"%$	c #5AB176",
"&$	c #4FAA7D",
"*$	c #61BA6E",
"=$	c #70984E",
"-$	c #7C6068",
";$	c #795B8D",
">$	c #7CB46C",
",$	c #65BC6A",
"'$	c #72C355",
")$	c #7AA267",
"!$	c #7F7174",
"~$	c #8B5367",
"{$	c #71936B",
"]$	c #5DB672",
"^$	c #6BBF65",
"/$	c #70AF50",
"($	c #838E61",
"_$	c #7B6268",
":$	c #81424F",
"<$	c #5C395F",
"[$	c #679250",
"}$	c #60B86F",
"|$	c #52AD7B",
"1$	c #59AF77",
"2$	c #69BC68",
"3$	c #73C756",
"4$	c #72B153",
"5$	c #69914A",
"6$	c #6D6A5B",
"7$	c #6D715B",
"8$	c #6FB259",
"9$	c #4DAB7E",
"0$	c #4FA97E",
"a$	c #5CB274",
"b$	c #69BD67",
"c$	c #71C45D",
"d$	c #72BB53",
"e$	c #4F562A",
"f$	c #8A7F8B",
"g$	c #839E7C",
"h$	c #6FB454",
"i$	c #72C55B",
"j$	c #60B571",
"k$	c #51AA7D",
"l$	c #4DAA7E",
"m$	c #4FAE7C",
"n$	c #4FAD7C",
"o$	c #51AB7C",
"p$	c #5C4A2B",
"q$	c #784C5B",
"r$	c #719B5F",
"s$	c #81A378",
"t$	c #7C956B",
"u$	c #849A7E",
"v$	c #829376",
"w$	c #8D9E88",
"x$	c #8BA185",
"y$	c #7AA168",
"z$	c #68A84B",
"A$	c #6EBC52",
"B$	c #5EB274",
"C$	c #52AB7C",
"D$	c #58B177",
"E$	c #72BF53",
"F$	c #6E5A3D",
"G$	c #917A72",
"H$	c #74C158",
"I$	c #70C45E",
"J$	c #5AB276",
"K$	c #56B377",
"L$	c #6D683B",
"M$	c #8F8171",
"N$	c #69BF66",
"O$	c #819152",
"P$	c #8CA88E",
"Q$	c #5CB771",
"R$	c #6CC162",
"S$	c #6EB54F",
"T$	c #743E3B",
"U$	c #A8829C",
"V$	c #7BBE67",
"W$	c #6EC260",
"X$	c #54AF79",
"Y$	c #5DB274",
"Z$	c #697C3F",
"`$	c #9AAAA5",
" %	c #55AF79",
".%	c #5AB076",
"+%	c #71C355",
"@%	c #74443C",
"#%	c #5DB175",
"$%	c #58B077",
"%%	c #59B474",
"&%	c #6DAF4E",
"*%	c #9C6F8C",
"=%	c #81B572",
"-%	c #6CC163",
";%	c #6BA74B",
">%	c #87B085",
",%	c #6EB34F",
"'%	c #88AF86",
")%	c #636542",
"!%	c #76B06B",
"~%	c #72BF56",
"{%	c #697D52",
"]%	c #5B3E4A",
"^%	c #57543E",
"/%	c #6B3B44",
"(%	c #867F7D",
"_%	c #51564B",
":%	c #6F7564",
"<%	c #71BD55",
"[%	c #5B7B46",
"}%	c #5F8B42",
"|%	c #6DB950",
"1%	c #699C51",
"2%	c #72A65E",
"3%	c #71BE55",
"4%	c #663639",
"5%	c #512239",
"6%	c #697852",
"7%	c #6F8F5A",
"8%	c #6D685B",
"9%	c #72A963",
"0%	c #708A61",
"a%	c #5E564B",
"b%	c #708462",
"c%	c #6EB953",
"d%	c #68BC68",
"e%	c #6BB965",
"f%	c #647447",
"g%	c #592B25",
"h%	c #532421",
"i%	c #606A4C",
"j%	c #6EB755",
"k%	c #73C556",
"l%	c #687352",
"m%	c #847C7F",
"n%	c #6DC161",
"o%	c #6ABD67",
"p%	c #5EB373",
"q%	c #58AD79",
"r%	c #53A97C",
"s%	c #6ABD63",
"t%	c #57A870",
"u%	c #5CAB6B",
"v%	c #6FC15D",
"w%	c #639847",
"x%	c #5A7335",
"y%	c #617338",
"z%	c #65723C",
"A%	c #576743",
"B%	c #5E7564",
"C%	c #56A17A",
"D%	c #54AA7C",
"E%	c #62B670",
"F%	c #60B471",
"G%	c #66BA6A",
"H%	c #65BA6C",
"I%	c #67BB6A",
"J%	c #6FC360",
"K%	c #5BB275",
"L%	c #54AE7A",
"M%	c #50AA7D",
"N%	c #4BA780",
"O%	c #4CA780",
"P%	c #51AC7C",
"Q%	c #5FB770",
"R%	c #52AC7B",
"S%	c #55AD7A",
"T%	c #6DC063",
"U%	c #57B078",
"V%	c #4CA87F",
"W%	c #4DA87F",
"X%	c #57B177",
"Y%	c #62BA6D",
"Z%	c #6BC064",
"`%	c #70C35E",
" &	c #64BC6A",
".&	c #5BB474",
"+&	c #53B079",
"@&	c #56AB7A",
"#&	c #4EA480",
"$&	c #52A97D",
"%&	c #59B475",
"&&	c #6BBE65",
"  . + @ # $ % % & # * = - ; > , @ @ '       ' @ @ , ) ! ~ { ] ^ / / ; ( _ @ : .         . : < : ) # [ } | @ 1 2 3 ] 4 5 : + 6   ",
"  # 7 ~ 8 9 % % 0 a b c 0 d e f g / * h i i + j j k = 7 l m n o p & o 0 q ~ r _ s i i   t u 2 r = t v w - b 2 l x n o ( ~ y e . ",
"z 7 o x m A % % A m 3 m % 9 g j B & | f 1 f e v [ > C w % % D E F G H I J K w L 1 f f = M N % w O / B % m 3 3 x % % % m m P a # ",
"& d A ] n % % % % n n n n P B Q R S $ ( ( ( v o o [ 4 T U V W X Y Z ` Z  ...+.@.#.$.( p ; x ] m l [ o % n n n % % % % n %.% w &.",
"% % % % % % % % % % % % % % % % % % % % % % % *.=.-.;.>.,.'.).).!.~.{.].^./.(._.:.<.[.}.% % % % % % % % % % % % % % % % % % % % ",
"% % % % % % % % % % % % % % % % % % % % % |.1.2.3.4.].^.5.(.6.7./.^.8.9.0.:.a.a./.:.).b.c.d.% % % % % % % % % % % % % % % % % % ",
"n % % % % % % % % % % % % % % % % % % e.f.g.h.4.i.0.j.(.a.k.l.k.m.n.o.p.8.{.q.r.s.t.u.v.h.w.x.y.% % % % % % % % % % % % % % % n ",
"3 m % % % % % % % % % % % % % % % z.A.B.C.D.E.F.8.X _.G.k.l.l.l.k.H.9.I.(.J.K.D.L.,.4.M.N.O.P.Q.R.% % % % % % % % % % % % % m 3 ",
"S.T.3 n % % % % % % % % % % % % U.V.C.G./.W.q.8.X.!.Y.n.a.k.k.k.a.Z.{.I.`.`. +.+J.5.o.q.].M.++@+#+$+% % % % % % % % % % % A %+&+",
"*+=+-+] % % % % % % % % % % % ;+>+,+:.j.i.q.8.X.`.'+)+!+5./._.~+{+{.p.]+^+]+J./+(+j.)+F._+:.:+<+[+}+|+% % % % % % % % % n 3 &+1+",
"2+3+o ] % % % % % % % % % % 4+5+O.4.,.6+7+^.p.8+]+p..+~.L.L.~.q.8.9+0+a+^+r.b+p.c+/+/+q.n.a.(. +d+e+f+g+% % % % % % % % n 3 h+i+",
"z b R %.% % % % % % % % % j+k+M._+).8.8.Y.7+.+X.`.p.C.^+c+l+a+m+m+n+0+]+o+k.a.C.p.I.8+q.(.l.m.(.:.d+p+q+r+% % % % % % % n m 8 # ",
"&.0 A n % % % % % % % % s+t+W...Y...u+v+~.F.c+^+.+X.X.I.`.^+w+9+]+/.a+p. +k.m.n..+8+x+F.s.a.a.n.Y.7+[+y+z+A+% % % % % % % % w $ ",
"B+T.C+D+% % % % % % % E+F+6+].!.i.L.G+X.q.u+l+9+{.c+c+m+`.x+`.x+H+`.]+p.o. +I+s.8.9+H+c+].!+/./. +7+J+4.[+K+% % % % % % L+%+T.B+",
"M+N+O+P+m n % % % Q+R+S+h.6+F.~.F.X.`.c+c+'+L.{.9+T+I.l+m+9+^+m+8+I.`.v+/+{.L.q.c+]+I.]+K.6+o.J.7+'.U+M.V+d+W+% % % % % B+X+N+M+",
"Y+Z+X+`+m n % %  @.@X O.M.q.8.v+p./+^+^+T+l++@a+@@+@0++@+@9+^+0+9+T+^+]+p.x+`.I.p.b+o+`.`.K.q.Y #@U+M.6+h.D.$@%@% % % % %+&@*@=@",
"-@;@>@R % % % % ,@'@N.~.q.{.b+K.)@c+!@^+~@!@{@^+@@!@]@^@/@]@]@9+0+l+0+]+c+l+I.(@v+_@C..+K.X.K.8.8.q.{.:@,.P.<@[@% % % % 3 }@|@1@",
"2@L 3 3@% % % 4@5@6@!.F.7@.+8@K.c+p.^+p.c+]+^+I.9+9+T++@9@/@^@T+/@T+]@m+^+T+a+H+]+0@u+v+K.8.8.^.8.F.D.a@M.3.P.b@}.% % % ] % 2 k ",
". c@0 m % % d@e@4.'+F.7@_@v+/+F.u+8.v+f@u+u+0@G+v+v+p.c+I.^+l+^+T+0+]@0+T+~@@@^+m+I.]+u+_@]+].u+8.{.6.5.a@g@h@e+i@% % % j@S 7 + ",
"' k@l@C+% m@n@Y !.o.F.F.q.L.~.M.M.o@o@` ` Z ` Z ` p@q@r@r@u+0@(@8+8+]+H+]++@]@l+!@]+0+8+X.E.L.F.u+E.:+Y.7+P.V+s@t@u@n n v@w@x@y@",
"  2+z@A@}@B@4.C@'+'+].M.` U+U+D@D@D@v.v.U+U+E@O.O.U+E@E@F@E@E@o@G@r@G+0@v+]+9+I.0+w+!@I.^+`.x+x+b+q.M.'.X N.4.H@<@I@3 D+J@*@K@L@",
"  M@N@O@P@Q@R@!.Y h.v.D@S@T@O.V+N.!.'.R@_+U@a@,+7+'+D...6+6+M.N.U+E@F@p@V@G+u+0@`./+^+8+T+I.p.I.8.v+F.6@N.` Y v.X b@W@=+X@Y@Z@  ",
"      `@ #++4.++T@.#T@O.4.R@W.j.C.,+5.j.C._.,+5._.J.I++#s.~+5.,+'.9.!.E@U+E@Z E.L.u+x+v+^+c+n+9+X./+K.@#q.6@O.U+s@##$#%#O@-@    ",
"  s @ &#*#++O.=#T@V+C@W.). +7+j.C.:+^.:+D.7+7+(+-#t.r.!+r.s.;#8@~+n.~+'._+R@U+D@F@M.].{.v+X.w+]+K.w+X.F.{.~.Y U+>#,#'#)#!#~#s   ",
"' f j {#h@H@]#H@P.C@7+5.j.U@j.D.).D.).u.:@R@R@R@R@u.6+:@:@u.^#/#J.Z.s.j.(# +:@W.V+_#D@N.E.L.X.X..+b+K.v+F.L.E.h.H@:#<#% 4 O = . ",
". j 4 [#T@S@S@J+_+,+D.,+:.j...'.X 4.V+++D@D@D@v.v.U+U+v.E@U+N.h.C@)+:@^.:+^.:.5.D.X Y v.}##@].L.{.v+_@X.X.q.M.Y h@|#1#A+3 0 L : ",
", 2#P 3#S@4#P.C@a@:+ +o+^...'.C@H@5#D@U+#@Z N.` 6@o@o@o@6@` N.Z E@E@O.R@C@i.^.U@^._.:+R@Y v.D@U+E.].q.F._@7@{.!.4.s@6#7#] x 8#: ",
"! u R 9#4#T@P.).U@.._+^.7+U@a@J+h@S@#@N.O.Y {.i.9./#7@/#F.{.L.].6@++O.E@U+O.Y '+^#t._+C.j.R@++T@D@U+M.L.{..+o.q.4.O.0#a#n m c = ",
"q >@3 b#4#s@c#C@).,+j.,+U@_+'. .T@O.V+d#y+e+g@~@e#I+{@{@I+e#8@V+d#f#g#h#H@` U+v.O.,.a@).^. +,+R@O.T@D@N.M.~.~.)+6+V+'@##i#A d 8 ",
"d j#A A+k#l#m#a@..).).).).a@X  .S@4.d#|#n#/.s@j.(#n.H.H.7.n...:#n#/.p+=#o#J+o.N.U+.#h.'.U@^.7+C.,+R@D@.#U+#@E.~.'+Y V+p#q#% o 0 ",
"j - { n r#l#s#m#W...U@^.D.'.c#@+h@V+o#t#C.<@'@u#7.v#a.a.v#/.S@C.w#d+p+l#f#o#U@t.6+E@}#D@R@D.:+:+U@_+D.V+=#D@++6@,.Y V+s@x#y#$ g ",
"z#2 P n A#B#t#m#g@3.X W.W.W.C@O.O.4.4#4#>#T@T@u#v#a.m.m.a.Y.5#S@s@s@l#C#f#d#'.!+t.6+U+}#]#h.C@).,+:.:+W.@+=#S@v.h.V+h.s@:#D#( 5 ",
"B w x % % E#F#t#m#C@X X g@c#c#@+h.u.]#4#4#4#=#d+v#a.m.m.m.Y.S@4#=#=#4#f#f#]#'.Z.-#o.N.v.4#f#@+C@'.).U@j.^.c#S@=#T@O.O.h@y+G#S l ",
"] ] n % % % H#I#J#P.m#g@3.3.P.'@4._@++++H@O.h. +H.a.a.a.a.(.Y h@S@=#=#S@T@v.U@Z.-#/#,.U+T@f#T@P.X ..U@D.).3.m#S@=#S@h@l#K#L#] ] ",
"3 3 3 m % % % M#N#[+O#J#P.P.m#@+6+9+b+{.J.-#^.(#7.H.v#v#v#H.:+~.'+!.6+!.~.C@9@n+w+.+].++s@=#h@J+3.a@D.7+:+j...P.4#4#S@>#P#L#3 3 ",
"Q#R#S.%+m % % % S#T#O#J#J#m#P.'@,.p.m+a+s.8@e#{@(.n._.7.7.7.n.o+t.~+~+t.^#T+!@a+b+8.6+s#P#T@'@J+X ).).a@'.W.C@m#'@f#4#C#,#U#R#Q#",
"V#W#N+X#3 n % % % Y#Z#e+|#[+t#J#P.F.{+)@n+`#~@e#I+{@(#(#(#(.+#(#I+~+`#`#!@T+m+w+7@{.6@|#l#O.@+ .3.'.a@D.^.U@_+W.P.=#f#>#y+ $W#V#",
"K@.$Q#+$m % % % % % % @$#$e+|#[+p+g@q.7@{+-#8@`#~+;#e#e#I+I+I+e#e#;#~+9@n+)@b+7@q.E.J#|#T@@+P. .3.3.....a@W.3.g@P.'@C#P#$$&+%$&$",
". *$S % % % % % % % % % A#=$-$e+|#[+g@'+)+^#t.J.s.!+8@`#`#`#`#`#Z.8@s.-#b+_@.+{.E.J+y+s@H@@+J+J+c#W.X 3.X X 3.c#J#0#>#;$>$R ,$: ",
". L { 3@% % % % % % % % % % '$)$!$y+e+~$c#'+i.9.^#(+t.r.J.-#J.J.r.t.(+/#8.q.].6@[+y+p#s@@+'@P.m#m#J+g@3.3.c#J+t#t#0#,#{$] % 2 k ",
". ]$^$S % % % % % % % % % % % % % /$($_$e+~$c#R@'+:@i.o.o.o.o.o.)+i.0.L.E. .:$e+K#l#'@'@p+P.s#P.m#m#J#O#O#m#J#[+e+<$[$% R %+}$@ ",
"  |$1$2$3 n % % % % % % % % % % % % % 3$4$5$6$O#J+ .6+!.'+'+'+'+!.R@c#m#J#O#P#C#p+t#t#t#t#O#J#O#[+O#O#O#|#e+y+e+7$8$% % T.X+`@' ",
"  9$0$a$b$c$% % % % % % % % % % % % % % % d$e$h@P.V+V+V+Y V+h.V+P.H@h@h@T@@+P.'@0#e+y+e+y+e+y+e+e+y+##:#:#f$g$h$% % i$^$j$k$l$L@",
"  m$n$o$O+^$% % % % % % % % % % % % % % d@p$h@:@7+7+{+b+/+c+r.{+7@K.C.'.6+:+U@ +m#q$r$s$t$u$v$v$w$x$y$z$A$% % % % n )#B$C$n$i   ",
"  s ' D$A@)#% % % % % % % % % % % % % E$F$m#..(+(.J.-#v#Y.0+a+a+:.!+_@K.X ..^#7+o.C@G$H$% % % % % % % % % % % % % % I$S.J$y@s   ",
"  , K$~ S m % % % % % % % % % % % % A#L$c#c#a@9.{+n+J._.!+a+m+0+s.w+w+:.0._+J.b+b+^#7+M$e.% % % % % % % % % % % % % A -+N$t ,   ",
", | 2 0 % n % % % % % % % % % % % % O$'.C@!.^#:+a+I+)@)@a+;#0+@@0+a+n+r.:@'.7+b+r.{+.+X P$% % % % % % % % % % % % % % n j#- Q$@ ",
". ;@R$-+% % % % % % % % % % % % % S$T$'. .'./#r.8@{@e#;#{@9@n+T+ +8@n+b+/#,.(+{+5. +.+ +U$V$% % % % % % % % % % % % % % R W$*$@ ",
"  X$Y$`+m n % % % % % % % % % % % Z$3./#4.7+/#w+~+I++#+#H.e#;#8@a.(.^+:.U@4.(+{+_./._@^#g@`$% % % % % % % % % % % % % % %+%# %' ",
"# D$.%2$m n % % % % % % % % % % +%@%3.).R@i.(+r.~+;#{@(#7.{@(#J.o+,+p.j.U@R@i.-#t.t.J.s.o.U$+%% % % % % % % % % % % % % T.#%$%%%",
">@R$%+D+% % % % % % % % % % % % &% .X W.R@9.J.r.Z.~+e#I+{@I+{@~@)@Z.!+{+^.'+,.J.8@!+!+:+..*%=%% % % % % % % % % % % % % L+%+-%>@",
"] ] n % % % % % % % % % % % % % ;%P.3.g@V+i.t.r.!+8@~+~@;#~@;#~@8@Z.Z.!+/.D.Y ^#s.8@!+7+a@[+>%% % % % % % % % % % % % % % n ] ] ",
"m x % % % % % % % % % % % % % % ,%'@J+P.s@R@o.^#r.J.!+8@Z.8@Z.8@-#!+!+J.7+W.O.:@^#r.r...3.O#'%% % % % % % % % % % % % % % % A m ",
"8#[ 3 % % % % % % % % % % % % % A+)%'@'@p#@+!.i./#(+r.r.-#r.J.J.-#r.-#r.t.(+h.V+C@i.W.'+Y e+!%% % % % % % % % % % % % % % A 4 2 ",
"_ b R n % % % % % % % % % % % % % ~%{%]%^%/%++,.u.i.9.^#^#^#/#^#^#^#(+(+_@(+R@h@H@V+V+++'@(%|.% % % % % % % % % % % % % n m - | ",
"8#[ 3 % % % % % % % % % % % % % % % % % % _%0#O.V+,.!.0.u.:@'+:@i.:@)+)+^#^#:@h@l#P#t#0#:%<%% % % % % % % % % % % % % % % A 4 2 ",
"3 x % % % % % % % % % % % % % % % % % % % [%>#p#h@O.++Y Y Y V+Y 4.'+R@:@o.i.).,.S@P#}%|%% % % % % % % % % % % % % % % % % % A m ",
"n % % % % % % % % % % % % % % % % % % % % 1%l#4#>#S@l#s@'@'@'@p+H@h.R@)+U@j.D.R@O.,#2%% % % % % % % % % % % % % % % % % % % % n ",
"% % % % % % % % % % % % % % % % % % % n % 3%4%@+'@T@f#4#>#5%6%7%8%p+V+C@u.W.i.'.P.K#9%% % % % % % % % % % % % % % % % % % % % % ",
"% % % % % % % % % % % % % % % % % % % % % % 0%p+P.c#P.T@C#a%'$% e.b%s@V+u.X o.X @+e+c%% % % % % % % % % % % % % % % % % % % % % ",
"& d A ] n % % % % n ] n n R C+B+-+D+`+d%d%d%e%f%g%H@H@h%i%j%% % n k%l%h@Y R@C@4.p#m%d%2$n%m 3@3 %+^$S % n ] n % % % % n ] % }@o%",
"z 7 j#m 3 A % % A 3 3 3 % }@p%Y$%+b$q%*+r%*+O+^$s%t%u%v%% % % % m m k%w%x%y%z%A%B%C%*+D%E%D+% 0 F%X+C+% 3 3 3 m % % % m x R G%N+",
"  # u H%I%}@% % J%G%w@&+W$W$K%L%}$]$M%N%O%N%P%Q%Q%R%S%A@T%3 %.o p & o 0 q ~ r U%V%N%N%W%X%r 2 Y% %.$Z%`%I%w@S.%+m n o ( ~  &.&0$",
"  . +&k$M+`+% % b$@&#&D%X#4 5 ' * * L@m$m$m$' * @ -@2+$&R#R 3@^ / / ; ( _ @ : ) m$m$m$m$y@: < : ' %&[ &&M+#&r%S.3 ] 4 5 : + . L@"};
