/* XPM */
static char * player_right_xpm[] = {
"64 64 652 2",
"  	c #4FAF7B",
". 	c #51B079",
"+ 	c #53B178",
"@ 	c #53B179",
"# 	c #5DB771",
"$ 	c #6EC360",
"% 	c #75C956",
"& 	c #73C759",
"* 	c #66BE68",
"= 	c #56B376",
"- 	c #52B179",
"; 	c #5AB673",
"> 	c #6BC263",
", 	c #6CC262",
"' 	c #59B574",
") 	c #50AF7A",
"! 	c #53B278",
"~ 	c #51B07A",
"{ 	c #58B475",
"] 	c #69C065",
"^ 	c #6EC35F",
"/ 	c #5EB870",
"( 	c #6FC45F",
"_ 	c #72C759",
": 	c #65BD69",
"< 	c #55B277",
"[ 	c #50B07A",
"} 	c #50AF7B",
"| 	c #5DB871",
"1 	c #68BF66",
"2 	c #57B476",
"3 	c #52B079",
"4 	c #6AC064",
"5 	c #74C857",
"6 	c #6BC163",
"7 	c #5CB772",
"8 	c #64BD6A",
"9 	c #71C65B",
"0 	c #74C856",
"a 	c #73C858",
"b 	c #6DC360",
"c 	c #65BD6A",
"d 	c #70C55D",
"e 	c #6BC262",
"f 	c #58B575",
"g 	c #63BB6C",
"h 	c #63BC6B",
"i 	c #4EAE7C",
"j 	c #4EAF7B",
"k 	c #67BE67",
"l 	c #6FC45E",
"m 	c #6AC065",
"n 	c #73C758",
"o 	c #64BC6B",
"p 	c #54B278",
"q 	c #5FB96F",
"r 	c #4DAE7C",
"s 	c #60BA6E",
"t 	c #55B377",
"u 	c #6EC45F",
"v 	c #67BE68",
"w 	c #67BF67",
"x 	c #6FC55D",
"y 	c #68BF67",
"z 	c #72C75A",
"A 	c #6DC361",
"B 	c #61BA6D",
"C 	c #70C55C",
"D 	c #63BC6C",
"E 	c #62BB6C",
"F 	c #71C456",
"G 	c #6DBB52",
"H 	c #6DB851",
"I 	c #6DB74F",
"J 	c #6DB34F",
"K 	c #8AAF5D",
"L 	c #8FB763",
"M 	c #76C056",
"N 	c #62BB6D",
"O 	c #74C858",
"P 	c #57B475",
"Q 	c #6AC164",
"R 	c #75C856",
"S 	c #67B861",
"T 	c #89A063",
"U 	c #AD9974",
"V 	c #BA937E",
"W 	c #B37C70",
"X 	c #82443E",
"Y 	c #783028",
"Z 	c #80362D",
"` 	c #7C3A33",
" .	c #996158",
"..	c #90574B",
"+.	c #6A7E3B",
"@.	c #83AB57",
"#.	c #73C056",
"$.	c #71C55C",
"%.	c #72C65A",
"&.	c #6CC261",
"*.	c #70BF53",
"=.	c #708F48",
"-.	c #B68575",
";.	c #DFB5A5",
">.	c #F3D1C0",
",.	c #F9DCCB",
"'.	c #F5D6C6",
").	c #C59184",
"!.	c #97493E",
"~.	c #A7594C",
"{.	c #A35447",
"].	c #944E44",
"^.	c #AF776B",
"/.	c #A56C61",
"(.	c #89463E",
"_.	c #894438",
":.	c #686632",
"<.	c #928058",
"[.	c #B0B17C",
"}.	c #80BA59",
"|.	c #72C255",
"1.	c #6F904D",
"2.	c #603524",
"3.	c #FDF1DB",
"4.	c #9D584C",
"5.	c #B47262",
"6.	c #BA6B5B",
"7.	c #FDE6CD",
"8.	c #FCE4D4",
"9.	c #EFCBBA",
"0.	c #823F38",
"a.	c #925A52",
"b.	c #AA7266",
"c.	c #78984C",
"d.	c #73C757",
"e.	c #7DBE59",
"f.	c #96945E",
"g.	c #67413B",
"h.	c #72322D",
"i.	c #5F2220",
"j.	c #9B5B51",
"k.	c #C78B79",
"l.	c #D9A38E",
"m.	c #CD927E",
"n.	c #AD5F51",
"o.	c #D88A73",
"p.	c #B06D5E",
"q.	c #FCE1CD",
"r.	c #FEF3E0",
"s.	c #FEF7E4",
"t.	c #FEFCEA",
"u.	c #D7AA9B",
"v.	c #A66456",
"w.	c #645F33",
"x.	c #6AA64B",
"y.	c #73C656",
"z.	c #80B671",
"A.	c #A77B7E",
"B.	c #743D3B",
"C.	c #682A28",
"D.	c #7A342D",
"E.	c #894037",
"F.	c #9D4F43",
"G.	c #BD877A",
"H.	c #CC7D69",
"I.	c #D19884",
"J.	c #DE8B71",
"K.	c #FDEAD3",
"L.	c #FDEADA",
"M.	c #B46455",
"N.	c #904339",
"O.	c #E2BAAB",
"P.	c #D3AC98",
"Q.	c #9DA769",
"R.	c #73C456",
"S.	c #66BA6B",
"T.	c #6DC162",
"U.	c #73B95E",
"V.	c #886D82",
"W.	c #6B3331",
"X.	c #6D2E2A",
"Y.	c #BE7362",
"Z.	c #E7C0AF",
"`.	c #D47F67",
" +	c #E6B29D",
".+	c #EBC5B5",
"++	c #C77663",
"@+	c #9F665C",
"#+	c #B49A7B",
"$+	c #75C156",
"%+	c #6CBF64",
"&+	c #65B96C",
"*+	c #54AA7B",
"=+	c #73B958",
"-+	c #968598",
";+	c #784B5B",
">+	c #A9809D",
",+	c #D3A495",
"'+	c #B88276",
")+	c #AB685A",
"!+	c #C28471",
"~+	c #D2846E",
"{+	c #E5967A",
"]+	c #E89E83",
"^+	c #D18C77",
"/+	c #EBBCA6",
"(+	c #DEA893",
"_+	c #985449",
":+	c #CE9D8F",
"<+	c #937E58",
"[+	c #71BF53",
"}+	c #72C65B",
"|+	c #62B66F",
"1+	c #52A87D",
"2+	c #50AB7C",
"3+	c #64BB6B",
"4+	c #87C17F",
"5+	c #887081",
"6+	c #815C77",
"7+	c #CCA5A7",
"8+	c #DE9078",
"9+	c #D7937D",
"0+	c #EBA68C",
"a+	c #F3AB8E",
"b+	c #E99A7E",
"c+	c #D9856C",
"d+	c #C99789",
"e+	c #8F493F",
"f+	c #725534",
"g+	c #70B850",
"h+	c #60B770",
"i+	c #4EAA7E",
"j+	c #72C256",
"k+	c #9A8DA8",
"l+	c #663139",
"m+	c #DBAFA1",
"n+	c #EBAC94",
"o+	c #F2A688",
"p+	c #EEA184",
"q+	c #BB927F",
"r+	c #6DB54F",
"s+	c #74C757",
"t+	c #9CA8A7",
"u+	c #896783",
"v+	c #CF7962",
"w+	c #DE9981",
"x+	c #C3705D",
"y+	c #BB6754",
"z+	c #74513D",
"A+	c #6FB650",
"B+	c #6CC064",
"C+	c #71C55B",
"D+	c #8BA284",
"E+	c #7B413E",
"F+	c #E39075",
"G+	c #F9D0B8",
"H+	c #B55E4B",
"I+	c #6E4D30",
"J+	c #70BC52",
"K+	c #70C45D",
"L+	c #6CC063",
"M+	c #57AC79",
"N+	c #57AC7A",
"O+	c #5CB175",
"P+	c #96B99B",
"Q+	c #753732",
"R+	c #652622",
"S+	c #F4B194",
"T+	c #6C4D35",
"U+	c #9EA66A",
"V+	c #74C456",
"W+	c #69BD68",
"X+	c #5AAF77",
"Y+	c #4DA77F",
"Z+	c #54AB7B",
"`+	c #5FB372",
" @	c #7FC171",
".@	c #B6A5CC",
"+@	c #722D25",
"@@	c #FCBE9D",
"#@	c #FAB697",
"$@	c #AE9371",
"%@	c #76C457",
"&@	c #6ABE66",
"*@	c #52AA7C",
"=@	c #4CA680",
"-@	c #52AF7A",
";@	c #62B96D",
">@	c #6FC35F",
",@	c #A5B1B2",
"'@	c #A9767F",
")@	c #A25F52",
"!@	c #C98672",
"~@	c #CA725B",
"{@	c #FDC6A5",
"]@	c #FDCFAD",
"^@	c #FDD9B7",
"/@	c #F8BBA3",
"(@	c #FBD5BE",
"_@	c #F0C0A9",
":@	c #E2A089",
"<@	c #642E2F",
"[@	c #788E4A",
"}@	c #6DC261",
"|@	c #5EB771",
"1@	c #50AE7B",
"2@	c #A998BE",
"3@	c #AA7166",
"4@	c #C36B55",
"5@	c #F0B59D",
"6@	c #E1AE99",
"7@	c #C37C69",
"8@	c #823B32",
"9@	c #5B3F28",
"0@	c #6CB750",
"a@	c #75C955",
"b@	c #51B179",
"c@	c #74C758",
"d@	c #8EA592",
"e@	c #592223",
"f@	c #89514E",
"g@	c #BC624C",
"h@	c #664829",
"i@	c #6FBA51",
"j@	c #60B96F",
"k@	c #51AF7A",
"l@	c #58B176",
"m@	c #63B76E",
"n@	c #6FC260",
"o@	c #76BD5C",
"p@	c #987E9B",
"q@	c #5D272F",
"r@	c #A74F3E",
"s@	c #A04939",
"t@	c #893529",
"u@	c #873B31",
"v@	c #635A2E",
"w@	c #72C554",
"x@	c #61B570",
"y@	c #56B177",
"z@	c #4FAE7B",
"A@	c #4DA97E",
"B@	c #65BA6B",
"C@	c #A3B2AF",
"D@	c #602727",
"E@	c #903C30",
"F@	c #6D2821",
"G@	c #69231B",
"H@	c #5A1C18",
"I@	c #90544B",
"J@	c #658740",
"K@	c #62B76F",
"L@	c #51A97D",
"M@	c #4EAC7D",
"N@	c #4FAB7D",
"O@	c #56AD79",
"P@	c #70BA66",
"Q@	c #984234",
"R@	c #BF8D81",
"S@	c #8D4D45",
"T@	c #531E20",
"U@	c #4D1A1B",
"V@	c #682E29",
"W@	c #5AA469",
"X@	c #54AD7A",
"Y@	c #4EAB7D",
"Z@	c #4EAD7C",
"`@	c #5FB472",
" #	c #95B59F",
".#	c #8D7090",
"+#	c #AE5A49",
"@#	c #FDE0C6",
"##	c #4D1412",
"$#	c #56734D",
"%#	c #53AD7B",
"&#	c #55B278",
"*#	c #63BA6C",
"=#	c #6EC261",
"-#	c #9CA6AA",
";#	c #6B415C",
">#	c #4A1D29",
",#	c #F3C5AE",
"'#	c #D69D88",
")#	c #46181B",
"!#	c #543325",
"~#	c #5FB66D",
"{#	c #958896",
"]#	c #997C9C",
"^#	c #621E18",
"/#	c #FCDAC3",
"(#	c #B97867",
"_#	c #BC7E6D",
":#	c #461211",
"<#	c #62AA56",
"[#	c #AA97BE",
"}#	c #7C5369",
"|#	c #551714",
"1#	c #639D47",
"2#	c #66BD69",
"3#	c #88BA84",
"4#	c #9D85AE",
"5#	c #3F0D0C",
"6#	c #3E1417",
"7#	c #5F9841",
"8#	c #61BB6D",
"9#	c #AEABC0",
"0#	c #643750",
"a#	c #64A145",
"b#	c #87BB81",
"c#	c #2C080E",
"d#	c #27020A",
"e#	c #381014",
"f#	c #330B0C",
"g#	c #F6CAB3",
"h#	c #844C46",
"i#	c #6BB54F",
"j#	c #9BA9A7",
"k#	c #5E293C",
"l#	c #2B0303",
"m#	c #FEF6ED",
"n#	c #7C4746",
"o#	c #55232A",
"p#	c #464824",
"q#	c #71C65C",
"r#	c #72C557",
"s#	c #9C88AC",
"t#	c #FFFEF6",
"u#	c #FDEED6",
"v#	c #BF9094",
"w#	c #6B3A44",
"x#	c #6D3739",
"y#	c #5E9742",
"z#	c #74B667",
"A#	c #3F1624",
"B#	c #49512E",
"C#	c #72C455",
"D#	c #5BB672",
"E#	c #86B282",
"F#	c #56302C",
"G#	c #6CB34E",
"H#	c #89AC89",
"I#	c #6E4867",
"J#	c #744146",
"K#	c #6B4044",
"L#	c #66A849",
"M#	c #5A2E49",
"N#	c #724450",
"O#	c #644050",
"P#	c #68A849",
"Q#	c #64B86D",
"R#	c #64B86E",
"S#	c #7EA988",
"T#	c #725C51",
"U#	c #6CB14D",
"V#	c #50A77E",
"W#	c #51A77E",
"X#	c #5AA274",
"Y#	c #E8B7A1",
"Z#	c #7D886F",
"`#	c #71C054",
" $	c #67BB69",
".$	c #4FAA7D",
"+$	c #5AB176",
"@$	c #86859B",
"#$	c #7B6667",
"$$	c #6DA64C",
"%$	c #6EC161",
"&$	c #57AF78",
"*$	c #65BC6A",
"=$	c #7CB46C",
"-$	c #795B8D",
";$	c #7C6068",
">$	c #70984E",
",$	c #61BA6E",
"'$	c #71936B",
")$	c #8B5367",
"!$	c #7F7174",
"~$	c #7AA267",
"{$	c #72C355",
"]$	c #60B86F",
"^$	c #679250",
"/$	c #5C395F",
"($	c #81424F",
"_$	c #7B6268",
":$	c #838E61",
"<$	c #70AF50",
"[$	c #6BBF65",
"}$	c #5DB672",
"|$	c #6FB259",
"1$	c #6D715B",
"2$	c #6D6A5B",
"3$	c #69914A",
"4$	c #72B153",
"5$	c #73C756",
"6$	c #69BC68",
"7$	c #59AF77",
"8$	c #52AD7B",
"9$	c #4DAA7E",
"0$	c #51AA7D",
"a$	c #60B571",
"b$	c #72C55B",
"c$	c #6FB454",
"d$	c #839E7C",
"e$	c #8A7F8B",
"f$	c #4F562A",
"g$	c #72BB53",
"h$	c #71C45D",
"i$	c #69BD67",
"j$	c #5CB274",
"k$	c #4FA97E",
"l$	c #4DAB7E",
"m$	c #4FAD7C",
"n$	c #52AB7C",
"o$	c #5EB274",
"p$	c #6EBC52",
"q$	c #68A84B",
"r$	c #7AA168",
"s$	c #8BA185",
"t$	c #8D9E88",
"u$	c #829376",
"v$	c #849A7E",
"w$	c #7C956B",
"x$	c #81A378",
"y$	c #719B5F",
"z$	c #784C5B",
"A$	c #5C4A2B",
"B$	c #51AB7C",
"C$	c #4FAE7C",
"D$	c #5AB276",
"E$	c #70C45E",
"F$	c #74C158",
"G$	c #917A72",
"H$	c #6E5A3D",
"I$	c #72BF53",
"J$	c #58B177",
"K$	c #69BF66",
"L$	c #8F8171",
"M$	c #6D683B",
"N$	c #56B377",
"O$	c #5CB771",
"P$	c #8CA88E",
"Q$	c #819152",
"R$	c #6EC260",
"S$	c #7BBE67",
"T$	c #A8829C",
"U$	c #743E3B",
"V$	c #6EB54F",
"W$	c #6CC162",
"X$	c #55AF79",
"Y$	c #9AAAA5",
"Z$	c #697C3F",
"`$	c #5DB274",
" %	c #54AF79",
".%	c #59B474",
"+%	c #58B077",
"@%	c #5DB175",
"#%	c #71C355",
"$%	c #74443C",
"%%	c #5AB076",
"&%	c #6CC163",
"*%	c #81B572",
"=%	c #9C6F8C",
"-%	c #6DAF4E",
";%	c #87B085",
">%	c #6BA74B",
",%	c #88AF86",
"'%	c #6EB34F",
")%	c #76B06B",
"!%	c #636542",
"~%	c #867F7D",
"{%	c #6B3B44",
"]%	c #57543E",
"^%	c #5B3E4A",
"/%	c #697D52",
"(%	c #72BF56",
"_%	c #71BD55",
":%	c #6F7564",
"<%	c #51564B",
"[%	c #6DB950",
"}%	c #5F8B42",
"|%	c #5B7B46",
"1%	c #72A65E",
"2%	c #699C51",
"3%	c #72A963",
"4%	c #6D685B",
"5%	c #6F8F5A",
"6%	c #697852",
"7%	c #512239",
"8%	c #663639",
"9%	c #71BE55",
"0%	c #6EB953",
"a%	c #708462",
"b%	c #5E564B",
"c%	c #708A61",
"d%	c #6ABD67",
"e%	c #6DC161",
"f%	c #68BC68",
"g%	c #847C7F",
"h%	c #687352",
"i%	c #73C556",
"j%	c #6EB755",
"k%	c #606A4C",
"l%	c #532421",
"m%	c #592B25",
"n%	c #647447",
"o%	c #6BB965",
"p%	c #66BA6A",
"q%	c #60B471",
"r%	c #62B670",
"s%	c #54AA7C",
"t%	c #56A17A",
"u%	c #5E7564",
"v%	c #576743",
"w%	c #65723C",
"x%	c #617338",
"y%	c #5A7335",
"z%	c #639847",
"A%	c #6FC15D",
"B%	c #5CAB6B",
"C%	c #57A870",
"D%	c #6ABD63",
"E%	c #53A97C",
"F%	c #58AD79",
"G%	c #5EB373",
"H%	c #5BB474",
"I%	c #64BC6A",
"J%	c #67BB6A",
"K%	c #70C35E",
"L%	c #6BC064",
"M%	c #62BA6D",
"N%	c #57B177",
"O%	c #4DA87F",
"P%	c #4BA780",
"Q%	c #4CA87F",
"R%	c #57B078",
"S%	c #6DC063",
"T%	c #55AD7A",
"U%	c #52AC7B",
"V%	c #5FB770",
"W%	c #51AC7C",
"X%	c #4CA780",
"Y%	c #50AA7D",
"Z%	c #54AE7A",
"`%	c #5BB275",
" &	c #6FC360",
".&	c #65BA6C",
"+&	c #4EA480",
"@&	c #6BBE65",
"#&	c #59B475",
"$&	c #52A97D",
"%&	c #56AB7A",
"&&	c #53B079",
"  . + @ # $ % & * = - ; > , ' ) @ ! @ ~         ~ @ - { ] ^ / / ( % _ : < ) [ - - }       } - - [ | ^ 1 2 3 ' 4 5 5 6 ' - + ~   ",
"~ 7 8 : ] 9 0 a b * c 1 d e f 2 g * h f   i i j { g : k l 9 4 m 9 0 n b o 2 p q q + i i r 3 / s t 7 u l v c w l 5 5 x y : o '   ",
"' w z n n 5 5 5 a & & n 5 A / B d 5 C D 2 t t = E d F G H I J K L M 5 5 d N | , e 7 t = t ; 4 A q s x 5 n & n O 5 5 O n a 9 o P ",
"Q d 5 R 0 5 5 5 5 0 0 0 5 9 , b n % a ^ m ] S T U V W X Y Z Y `  ...+.@.#.$ , 9 9 e ] ] ] 6 $.%.&.A z 0 0 0 0 5 5 5 5 0 % O u 4 ",
"5 5 5 5 5 5 5 5 5 5 5 5 5 5 5 5 5 5 5 5 *.=.-.;.>.,.'.).!.~.{.].^.^./.(._.:.<.[.}.5 5 5 5 5 5 5 5 5 5 5 5 5 5 5 5 5 5 5 5 5 5 5 ",
"5 5 5 5 5 5 5 5 5 5 5 5 5 5 5 5 5 5 |.1.2.^.;.'.3.3.;.4.5.6.).'.7.8.,.9.).!.0.a.b.c.d.5 5 5 5 5 5 5 5 5 5 5 5 5 5 5 5 5 5 5 5 5 ",
"0 5 5 5 5 5 5 5 5 5 5 5 5 5 5 5 e.f.g.h.i.j.k.l.m.n.~.6.o.p.q.r.s.t.s.3.,.u.4.v.0.h.w.x.y.5 5 5 5 5 5 5 5 5 5 5 5 5 5 5 5 5 5 0 ",
"& n 5 5 5 5 5 5 5 5 5 5 5 5 5 z.A.B.C.D.E.0.(.F.G.H.I.,.J.5.K.s.t.t.t.s.L.>. .6.M.N.G.O.P.Q.R.5 5 5 5 5 5 5 5 5 5 5 5 5 5 5 n & ",
"S.T.O 5 5 5 5 5 5 5 5 5 5 5 U.V.W.X.E.!.n.p.9.I.Y.Z.`.`.J.~. +3.s.s.s.3.q..+].++6.n.@+'.L.O.#+$+5 5 5 5 5 5 5 5 5 5 5 5 0 & %+&+",
"*+S.& 0 5 5 5 5 5 5 5 5 5 =+-+;+>+,+;.'+M.)+u.!+~+I.{+]+{+o.~.^+/+>.'.9.(+)+_+`.++6.n.v.u.;.:+<+[+5 5 5 5 5 5 5 5 5 5 5 % }+|+1+",
"2+3+& 0 5 5 5 5 5 5 5 5 4+5+6+7+Z.,.3.q.n.~+~+8+o.9+m.]+0+a+b+6.n.{.F.F.{.Y.o.{+c+o.).d+e+(.0.C.f+g+5 5 5 5 5 5 5 5 5 5 % 9 h+i+",
"' y n 0 5 5 5 5 5 5 5 j+k+l+7+;.,.r.t.,.n.c+J.o.O.3.s.m+{+a+n+o+o+0+p+8+]+O.o.`.++Y.d+.+6.6.^.'+E.q+r+5 5 5 5 5 5 5 5 5 R %.c P ",
"6 d 5 5 5 5 5 5 5 5 s+t+u+;+d+.+q.3.3.l.M.v+c+Y.q.r.s.Z.o.0+'.{+b+w+]+`.J.++++Y.]+8+M.{.x+y+W .+W @+z+A+5 5 5 5 5 5 5 5 0 O l Q ",
"B+%+T.C+5 5 5 5 5 5 D+;+0.E+d+Z.'.'.(+!.8+F+b+6.l.G+Z.p.o.{+`.F+v+`.v+`.o+8+8+~.b+p+y+n.++H+F.v.].!.e+I+J+5 5 5 5 5 5 5 K+L+%+B+",
"M+N+O+B+5 5 5 5 5 P+7+Q+E.R+/.d+I.p.e+H.{+J.{+8+n.F.~.~+x+`.J.c+o+]+b+o+p+J.S+b+~.F._+8+8+`.++M.{.M.e+h.T+U+V+5 5 5 0 n W+X+N+M+",
"Y+Z+`+T.5 5 5 5  @.@G.h.e+E.R++@` n.H.`.`.m+9+o.J.`.v+o.{+]+S+b+a+]+b+@@@@a+@@#@0+@@p+S+]+]+~+o.x+6.n.E.C. .$@%@5 5 0 n &@O+*@=@",
"-@;@>@& 5 5 5 5 ,@'@B.(.)@~.n.6.6.H.++H.Y.O.!@x+~@J.p+8+{+a+p+a+b+{@{@]@^@{@/@#@]+(@/@_@]+/@8+:@H.9+~.n.{.D.<@[@5 5 5 5 %.}@|@1@",
"p * 5 % 5 5 5 *.2@B.a.E.3@G.M.6.).6.6.H.x+y+4@{+F+0+S+]+o+{@S+]@S+^@]@5@@@S+b+b+J.]+{+8+o.]+o.8+H.6@Y.7@M.].8@9@0@5 5 5 a@& E b@",
"+ o $.c@5 5 5 d@6+e@f@3@9.8.~.6.y+!.{+!@y+{+J.o+]+#@_@S+a+{@a+S+]+p+]+J.8+o.x+x+H+4@y+y+g@x+6.y+M.~+x+!@7@M._+0.h@i@5 5 n l j@~ ",
"k@l@m@n@0 0 o@p@q@Q+B.d+.+,+N.y+M.F.N.++c+a+{+/@p+{@@@{+F+{+c+c+~@4@y+r@r@s@t@Z Y Z Y Z Z u@u@E.E.{.F.n.M.M.p.].` v@w@5 L+x@y@} ",
"z@A@Z+B@K+& C@'@D@0.D. ./.E.n.9+v+v+`.]+J./@w+a+J.b+{+x+4@H+r@E@u@F@F@G@F@F@R+C.C.F@R+R+i.i.H@H@H@R+R+Z E.!._+_+I@0.J@>@K@L@i+  ",
"  M@N@O@|+P@2@ .i.` Z D.8@M.x+6.J.o.J.S+c+]+~+`.4@y+H+Q@t@G@F@R+D.E.e+e+W G._+d+:+3@R@'+S@/.].D.Q+C.T@U@H@i.h.` ].S@V@W@X@Y@Z@  ",
"    1@X@`@ #.#q@R+C.8@n.+#H.~+++b+n+8+]+x+v+y+F.N.Y F@R+F@].5./.:+9./+l.@#G+I.>.9.:+>.O.u.9.:+O.u.@+S@0.C.T@##T@X.0.X.$#%#      ",
"  j &#*#=#-#;#>#R+` {.~.M.++w+H.{+w+++x+~.!.E.G@H@R+S@'+/./+q./+6@,#l.m.(+m.k.'#!+d+d+G.,+).,+O.u.d+Z.^.@+I@Q+T@)#C.X.!#~#- j   ",
"~ 2 B $ 5 {#]#D@h.N.F.M.x+H.9+Y.++++F.N.D.H@^#Q+@+)@Z./#u.l. +I.(#_#j.)@)@e+j.S@S@S@S@)@j.^.G.^.G.u.R@u.9.d+I@B.D@:#D@e@<#q t } ",
"@ E l & s+[#}#e@` E.n.++++!@x+~.F.!.+@|#i.`  .G.9.;.).,+).)@)+I@h.D.R+F@i.R+R+i.i.H@H@H@X.Q+0. ./.W u.;.:+G.:+'+E+U@U@T@1#$ q ~ ",
"@ 2#a % 3#4#q@0.].~.7@!@M.n.!.N.R+H@i.` S@,+>.).R@).v.I@S@C.F@F@Y D.Z 8@u@u@u@8@Z D.Y +@R+H@5#D@I@/.W ).m+Z.,+3@I@B.6#U@7#z 8#[ ",
"2 v n 0 9#0#C.0.n.p.Y.~.F.E.R+H@T@X.S@u.O.'+k._#_+` C.R+F@C.X.8@!.F.~.M.(#7@(#5.v.~.` C.D.+@U@e@E+3@R@d+).'+W R@^.B.T@6#a#%.h < ",
"y u O b#.#<@Q+e+)+{.{.E.D.H@T@C.S@:+Z.).^.3@(.C.i.R+Z D@c#d#e#f#Q+6@g#G+(@(@G+g#_@f@6+u+f#Q+C.T@X /.'+R@:+u.:+^.I@h#q@6#i#& }@k ",
"l 9 5 j#k#Q+` _+{.N.+@R+##H@S@:+O.d+).R@/.h.##R+D.p.E+l#)#l+'.m#]#W q.7.K.K.q./#u.q@'.m#}#f#0.U@X  .3@^.^.^.^.W 3@n#o#p#s+O q#u ",
"s 6 r#s#q@Q+` (.8@X.H@)#Q+G.'+R@,+,+G.S@H@|#F@e+k.R@l#e#o#l+7+t#O.U@'.u#3.3.u#7.v#<@'@O.w#l#Q+e@W.h#/.G.).R@W @+n#x#o#y#0 _ 1 q ",
"# ] z#]#q@h.Q+h.i.U@)#W.@+,+;.:+^.I@h.:#|#R+e+k.(+/.f#e#A#o#q@q@U@5#.+3.r.r.3.u#v#T@T@>#6#6#0.C.C.I@@+@+@+ .a.f@n#w#B#C#0 z * D#",
"b $.E#u+e@C.C.T@)#U@h#).u.R@^./.I@W.e#6#i.D.p.'# +/.:#e#e#6#)#)#6#U@.+r.r.r.3.u#7+)#6#6#6#:#j.h.W.h#h#f@ . .I@n#w#F#G#5 5 a d A ",
"% % H#I#o#e@U@)#U@n#a.^.G.R@W  .B.T@e#T@R+(.(#'# +R@i.T@U@)#)#U@e@` ,.3.3.3.3.K.Z.h.C.D@X.X.!@0.<@B.a.a.f@n#B.J#K#L#5 5 5 0 % % ",
"& & H#M#>#U@6#6#B.W u.,+d+G.3@a.E+e@)#q@X.!.Y.w+n+5@I@{.].e+]._+{.,+K.u#u#u#K.7./#).'#I.~.9+b+e+W.n#B.B.J#N#;+O#P#5 5 5 n & & & ",
"Q#R#S#;#A#6#e#<@n#I@@+/.3@^.^. .E+<@T@M#x#e+6.9+0+/@S+_#k./+/+k.m+q.7.7.7.>.q.,.(@g#6@l.0+o+o.(.<@B.n#J#J#N#T#U#5 5 5 n T.&+R#Q#",
"V#W#X#u+>#e#)#B.@+'+R@).G.3@/.a.X W.C.o#}#8@~.7@w+o+S+/@Y#Y#/+G+/#@#,./#/#/#(@G+g#_@Y#n+:@^+M.B.J#w#;+}#6+Z#`#5 5 5 0 &  $N+W#V#",
".$+$S.@$M#A#<@B.f@a.@+3@W W a.a.X B.W.T@}#J#N.n.7@9+:@n+5@/+,#g#g#G+G+G+g#g#,#/+Y#6@'#^+7@n.f@l+;+}#6+#$$$5 5 5 5 5 5 n %$Q#&$A@",
"@ *$%.=$-$>#0#J#h#a. . .a. .@+h#E+E+W.D@q@u+E+N.~.Y.!@9+'#l.6@ +Y#Y#Y#Y#Y#6@(+l.I.k._#)+_+f@;+}#6+;$>$C#5 5 5 5 5 5 5 5 5 $.,$~ ",
"p * 5 % '$;#0#w#w#E+h#a.a.f@E+n#n#B.<@W.q@k#u+;+8@!.n.6.(#!+k.m.I.I.'#I.m.k.!+_#5.v._+h#)$6+u+!$~${$5 5 5 5 5 5 5 5 5 5 a@_ E ~ ",
"- ]$T.%.5 ^$/$6+;+J#n#N#N#J#n#n#B.x#B.l+<@<@o#I#6+($X N.F.4.v.)+p.p.p.p.p.v.)@_+S@h#)$6+_$:$<$5 5 5 5 5 5 5 5 5 5 5 5 5 $.[$}$~ ",
"} %#O+%+5 5 |$1$6+u+6+}#N#N#N#;+N#J#N#w#w#w#w#l+A#M#N#J#n#h#S@]._+_+_+_+].e+X E+N#2$3$4$5$5 5 5 5 5 5 5 5 5 5 5 5 5 0 & 6$7$8$  ",
"z@9$0$a$[$b$5 5 c$d$e$]#]#.#u+6+6+u+6+u+6+u+6+0#<@B.W.T@e@e@D@B.Q+h.Q+` Q+Q+Q+B.e@f$g$5 5 5 5 5 5 5 5 5 5 5 5 5 5 5 h$i$j$k$l$  ",
"  i m$n$o$=#0 5 5 5 5 p$q$r$s$t$u$u$v$w$x$y$z$n#Z.R@,+e+/.O.H.7@^+m.8+~+9+^+d+d+)@e@A$i@5 5 5 5 5 5 5 5 5 5 5 5 5 5 [$X+B$m$C$  ",
"  j k@D$&+E$5 5 5 5 5 5 5 5 5 5 5 5 5 5 F$G$I@p.d+_#W  .H.!@(+;.0+0+a+.+u#'#I.,.!+W n#H$I$5 5 5 5 5 5 5 5 5 5 5 5 5 =#K@J$} j   ",
"  [ f K$}+O 5 5 5 5 5 5 5 5 5 5 5 5 5 y.L$d+_#9+9+I.'+4.;.w+w+l.a+o+0+(+>.I.n+^+5.3@h#h#M$C#5 5 5 5 5 5 5 5 5 5 5 5 n $.: N$[   ",
"- O$1 q#0 5 5 5 5 5 5 5 5 5 5 5 5 5 5 P$ .Y.^+m.9+d+/.)@m.n+0+a+#@a+,#0+:@:@G+0+,+_#].I@/.Q$5 5 5 5 5 5 5 5 5 5 5 5 0 5 l * ; [ ",
"- ,$R$%.5 5 5 5 5 5 5 5 5 5 5 5 5 5 S$T$Z.Y.Z.9.^+!+(.(#9+n+6@Z.S+n+5@(@,#g#(@6@m.(#/.X /.U$V$5 5 5 5 5 5 5 5 5 5 5 5 5 }+W$|@~ ",
"} X$`@T.5 5 5 5 5 5 5 5 5 5 5 5 5 5 Y$f@_#!@'.>.^+!+0.R@;.]+,.3.6@,#g#K.@#@#G+/+w+(#d+0.(#a.Z$5 5 5 5 5 5 5 5 5 5 5 0 n &@`$ %  ",
".%+%@%%+5 5 5 5 5 5 5 5 5 5 5 5 5 #%T$p.l.I.k.k.'#v.S@R@u.o.:+m+I./#(@7./#(@,#/+m.!+v.S@^.a.$%#%5 5 5 5 5 5 5 5 5 5 0 n 6$%%J$' ",
"}@&%T.C+5 5 5 5 5 5 5 5 5 5 5 5 5 *%=%W ,+(+(+6@I.(._+).^+(+ +:@_@(@G+(@G+g#/+ +m.I.5.S@@+ .X -%5 5 5 5 5 5 5 5 5 5 5 5 K+T.W$}@",
"% % 0 5 5 5 5 5 5 5 5 5 5 5 5 5 5 ;%;+3@d+(+6@l._#` G.'.(+ + +6@_@,#_@,#_@/+6@(+m.k.v.Q+f@a.B.>%5 5 5 5 5 5 5 5 5 5 5 5 5 0 % % ",
"n O 5 5 5 5 5 5 5 5 5 5 5 5 5 5 5 ,%N#a.W m.m._#)@C.@+d+I.(+(+'#6@ +6@ +6@(+I.m._#p.S@q@B.E+<@'%5 5 5 5 5 5 5 5 5 5 5 5 5 5 a n ",
"* $ O 5 5 5 5 5 5 5 5 5 5 5 5 5 5 )%6+` _+@+v.I@Q+h.!+k.m.'#m.'#I.I.m.'#m.m.!+(#v.].W.k#<@<@!%s+5 5 5 5 5 5 5 5 5 5 5 5 5 & , 2#",
"; 1 n 0 5 5 5 5 5 5 5 5 5 5 5 5 5 d.~%<@X.Q+Q+D@e@S@!+!@!+!+_#_#_#(#_#_#_#5.v.j.(.X.{%]%^%/%(%5 5 5 5 5 5 5 5 5 5 5 5 5 0 %.c { ",
"* $ O 5 5 5 5 5 5 5 5 5 5 5 5 5 5 5 _%:%0#w#M#o#e@)@_#_#)+)+)@v.)@_+)@j.4.].(.Q+C.0#<%5 5 5 5 5 5 5 5 5 5 5 5 5 5 5 5 5 5 & , 2#",
"n O 5 5 5 5 5 5 5 5 5 5 5 5 5 5 5 5 5 5 [%}%M#U@(.^.v.p.)@S@_+0.` Q+` ` ` X.C.e@k#>#|%5 5 5 5 5 5 5 5 5 5 5 5 5 5 5 5 5 5 5 a & ",
"0 5 5 5 5 5 5 5 5 5 5 5 5 5 5 5 5 5 5 5 5 1%;#C.S@G.u.R@)+S@h.D@l+<@<@<@q@o#U@>#6#o#2%5 5 5 5 5 5 5 5 5 5 5 5 5 5 5 5 5 5 5 5 0 ",
"5 5 5 5 5 5 5 5 5 5 5 5 5 5 5 5 5 5 5 5 5 3%I#B./.v.@+j.I@Q+l+4%5%6%7%>#6#e#T@<@W.8%9%5 0 5 5 5 5 5 5 5 5 5 5 5 5 5 5 5 5 5 5 5 ",
"5 5 5 5 5 5 5 5 5 5 5 5 5 5 5 5 5 5 5 5 5 0%6+W. .p. .j.Q+q@a%y.5 {$b%A#T@B.h#B.l+c%5 5 5 5 5 5 5 5 5 5 5 5 5 5 5 5 5 5 5 5 5 5 ",
"d%>@5 % 0 5 5 5 5 0 % 0 5 $.[$T.& a@n e%6$f%g%k#0.I@S@` e@h%i%0 5 5 j%k%l%D@D@m%n%o%f%f%f%&@K+}+B+L+%.0 0 % 0 5 5 5 5 0 % O u 4 ",
"N+p%%.a n 5 5 5 n & & & 5 L+O+q%l 5 K+r%s%1+t%u%v%w%x%y%z%i%n n 5 5 5 5 A%B%C%D%[$X+1+E%1+F%i$T.`$G%>@5 & & & O 5 5 O & n q#o P ",
"k$H%I%: ] 9 0 n T.&+m@J%K%L%&$X$M%* g N%O%P%P%Q%R%g : k l 9 4 m 9 R & S%K@T%U%V%V%W%P%X%P%Y%}$]$Z%`%R$R$S.m@p% &5 5 >@J%.&h '   ",
"z@~ + @ # $ % & &+E%+&M+@&, #&} @ ! @ k@C$C$C$C$) @ - { ] ^ / / ( a@%.R#$&i+1@- 3 } C$C$C$z@3 3 } # $  $s%+&%&i$5 5 &@M+0$&&~   "};
