/* XPM */
static char * player_xpm[] = {
"59 60 237 2",
"  	c None",
". 	c #4C6971",
"+ 	c #2C060F",
"@ 	c #4A2649",
"# 	c #27020A",
"$ 	c #28040B",
"% 	c #2E080F",
"& 	c #25030B",
"* 	c #2F0910",
"= 	c #2C080E",
"- 	c #2B060E",
"; 	c #381438",
"> 	c #20030F",
", 	c #21030B",
"' 	c #3C0911",
") 	c #480E17",
"! 	c #4C223B",
"~ 	c #7A342D",
"{ 	c #602727",
"] 	c #6D2E2A",
"^ 	c #682A28",
"/ 	c #894037",
"( 	c #E5967A",
"_ 	c #72322D",
": 	c #7C3A33",
"< 	c #722D25",
"[ 	c #5A1C18",
"} 	c #E99A7E",
"| 	c #6D2821",
"1 	c #FAB697",
"2 	c #531E20",
"3 	c #592223",
"4 	c #823B32",
"5 	c #FEF3E0",
"6 	c #B46455",
"7 	c #944E44",
"8 	c #904339",
"9 	c #9D4F43",
"0 	c #551714",
"a 	c #783028",
"b 	c #97493E",
"c 	c #652622",
"d 	c #89463E",
"e 	c #EEA184",
"f 	c #985449",
"g 	c #5F2220",
"h 	c #AD5F51",
"i 	c #8F493F",
"j 	c #F3AB8E",
"k 	c #4D1412",
"l 	c #3E1417",
"m 	c #823F38",
"n 	c #A25F52",
"o 	c #FDF1DB",
"p 	c #4D1A1B",
"q 	c #F2A688",
"r 	c #A35447",
"s 	c #D9856C",
"t 	c #C77663",
"u 	c #D47F67",
"v 	c #A7594C",
"w 	c #BA6B5B",
"x 	c #80362D",
"y 	c #753732",
"z 	c #46181B",
"A 	c #621E18",
"B 	c #461211",
"C 	c #CC7D69",
"D 	c #381014",
"E 	c #D88A73",
"F 	c #CF7962",
"G 	c #FCDAC3",
"H 	c #B47262",
"I 	c #F9AF90",
"J 	c #873B31",
"K 	c #C28471",
"L 	c #C3705D",
"M 	c #FDEAD3",
"N 	c #A66456",
"O 	c #B06D5E",
"P 	c #9D584C",
"Q 	c #E89E83",
"R 	c #3D0504",
"S 	c #DE8B71",
"T 	c #C78B79",
"U 	c #FDE6CD",
"V 	c #340303",
"W 	c #FCE1CD",
"X 	c #6B3331",
"Y 	c #642E2F",
"Z 	c #AB685A",
"` 	c #FBD5BE",
" .	c #D2846E",
"..	c #B97867",
"+.	c #DE9078",
"@.	c #FDEED6",
"#.	c #82443E",
"$.	c #DEA893",
"%.	c #330B0C",
"&.	c #F9D0B8",
"*.	c #2B0303",
"=.	c #FDE0C6",
"-.	c #744146",
";.	c #3F0D0C",
">.	c #7B413E",
",.	c #743D3B",
"'.	c #480906",
").	c #E39075",
"!.	c #8D4D45",
"~.	c #F6CAB3",
"{.	c #F4B194",
"].	c #BB6754",
"^.	c #D19884",
"/.	c #E1AE99",
"(.	c #CE9D8F",
"_.	c #CD927E",
":.	c #FEF7E4",
"<.	c #D9A38E",
"[.	c #6D3739",
"}.	c #D69D88",
"|.	c #F3C5AE",
"1.	c #DE9981",
"2.	c #BC7E6D",
"3.	c #E6B29D",
"4.	c #EBBCA6",
"5.	c #5D272F",
"6.	c #69231B",
"7.	c #C36B55",
"8.	c #210203",
"9.	c #55232A",
"0.	c #E8B7A1",
"a.	c #D3A495",
"b.	c #844C46",
"c.	c #EBA68C",
"d.	c #FEFCEA",
"e.	c #BE7362",
"f.	c #B55E4B",
"g.	c #9B5B51",
"h.	c #C98672",
"i.	c #C99789",
"j.	c #CA725B",
"k.	c #F0C0A9",
"l.	c #FCBE9D",
"m.	c #AE5A49",
"n.	c #AF776B",
"o.	c #A56C61",
"p.	c #BD877A",
"q.	c #90544B",
"r.	c #9F665C",
"s.	c #D7AA9B",
"t.	c #C59184",
"u.	c #7C4746",
"v.	c #B37C70",
"w.	c #925A52",
"x.	c #663139",
"y.	c #C37C69",
"z.	c #B88276",
"A.	c #D18C77",
"B.	c #F9DCCB",
"C.	c #AA7166",
"D.	c #D7937D",
"E.	c #89514E",
"F.	c #784B5B",
"G.	c #F3D1C0",
"H.	c #996158",
"I.	c #903C30",
"J.	c #EFCBBA",
"K.	c #724450",
"L.	c #DFB5A5",
"M.	c #4A1D29",
"N.	c #A74F3E",
"O.	c #190001",
"P.	c #EBC5B5",
"Q.	c #DBAFA1",
"R.	c #E2BAAB",
"S.	c #F5D6C6",
"T.	c #77271D",
"U.	c #E2A089",
"V.	c #E7C0AF",
"W.	c #984234",
"X.	c #FCE4D4",
"Y.	c #BF8D81",
"Z.	c #FDEADA",
"`.	c #6B3A44",
" +	c #530C07",
".+	c #802F24",
"++	c #A04939",
"@+	c #FDC6A5",
"#+	c #815C77",
"$+	c #7C5369",
"%+	c #AF5541",
"&+	c #BC624C",
"*+	c #5E293C",
"=+	c #893529",
"-+	c #EBAC94",
";+	c #5F120C",
">+	c #FDCFAD",
",+	c #F0B59D",
"'+	c #0F0000",
")+	c #512239",
"!+	c #3F1624",
"~+	c #5A2E49",
"{+	c #896783",
"]+	c #FFFEF6",
"^+	c #29070C",
"/+	c #997C9C",
"(+	c #643750",
"_+	c #F8BBA3",
":+	c #6E4867",
"<+	c #8D7090",
"[+	c #FEF6ED",
"}+	c #6B415C",
"|+	c #FDD9B7",
"1+	c #9C6F8C",
"2+	c #9D85AE",
"3+	c #6D1B13",
"4+	c #773440",
"5+	c #D7D6F8",
"6+	c #AA97BF",
"7+	c #8B5367",
"8+	c #81424F",
"9+	c #966177",
"0+	c #A9809D",
"a+	c #5C375F",
"b+	c #C2B3DF",
"c+	c #6E4C77",
"d+	c #CCC5F3",
"e+	c #B7A4CE",
"f+	c #B08EAE",
"g+	c #2E0A21",
"h+	c #795B8D",
"i+	c #BF9094",
"j+	c #D4C4E5",
"k+	c #A9767F",
"l+	c #8B71A5",
"m+	c #CCA5A7",
"n+	c #E7E6FB",
"                                                                                                                      ",
"                                                    c q.H.: a x a #.v.Y.p.                                            ",
"                                          (.H.c / d o.n.n.7 r v b t.S.B.G.L.z.[.                                      ",
"                                      >.C.w.m b t.J.B.X.U S.t.w H P L.o o S.L.n.g `.                                  ",
"                                    { _ m N P s.B.o :.d.:.5 W O E w v h _.<.T g.g _ x.o.                              ",
"                              z.s.R.p.8 6 w H.G.Z.:.d.d.d.:.M H S B.^.C p.9 d m / ~ ^ ,.k+                            ",
"                            Y.R.Z.S.r.h w t 7 P.W o :.:.:.o 3.v S u u V.e.^.J.O h b / ] X {+                          ",
"                          H.(.L.s.N h w t u f Z $.J.S.G.4.A.v E ( Q ( ^. .K s.Z 6 z.L.a.0+F./+                        ",
"                        _ ^ m d i i.t.E s ( E e.r 9 9 r h w } j c.Q _.D.E +. . .h W o B.V.m+#+{+                      ",
"                      Y./ z.n.w w P.i.e.t u E R.Q +.e c.q q -+j ( Q.:.o R.E S s h B.d.5 B.L.m+x.2+                    ",
"                    ,.r.v.P.v.].L r 6 +.Q e.t t S u Q 1.} ( S.c.E V.:.5 W e.s F 6 <.o o W P.i.F.{+6+                  ",
"                  ] i b 7 N 9 f.t h ].e } v +.+.q u F u F ).u ( E O V.&.<.w } ).+.b $.S.S.V.i.>.m F./+                ",
"              z.X _ i 6 r 6 t u +.+.f 9 v } {.S e q } Q q s S u L  .v 9 h +.( S ( C i O ^.i.o.c / y m+                ",
"            z.H.^ / h w L E  .Q Q {.e l.c.1 l.j l.l.} Q j } {.Q ( E F u S E D.Q.u u C h : < c / i _ p.e+              ",
"          >.Y ~ r h v D.C U.+._+Q k._+` Q 1 _+@+|+>+@+@+} j e j ( +.e S j.L h.R.e.C t C w w h v n d ,.k+e+            ",
"          3 4 7 6 y.e./.C +.E Q E +.( Q S } } {.l.,+>+|+{.>+{.@+q Q {.c.).( 7.].L C w w t.w 6 p.C./ w.,.6+            ",
"        c m f 6 y.h.L  .6 ].w L &+].].7.f.L L E +.S Q e Q {.j @+j {.k.1 Q q S ( ].h.( b ].w v X.J.C.E.3 #+2+          ",
"      g : 7 O 6 6 h 9 r / / J J x x a x a x =+++N.N.].7.j.s s ( ).( l.@+e _+( j s t 8 9 6 ].8 a.P.i.,.y 5./+          ",
"    3 m q.f f b / x c c [ [ [ g g c c | ^ ^ c | | 6.| | J I.N.f.7.L ( } S j 1._+S Q u F F D.h / o.H.~ m { k+e+        ",
"    ^ !.7 : _ g [ p 2 ^ y ~ 7 o.!.z.Y.C.(.i.f p.v.i i / ~ c | 6.=+W.f.].7.u  .Q s {.S E S w L 6 4 ~ x : g H.6+        ",
"  2 ] m ] 2 k 2 ^ m !.r.s.R.(.J.s.R.G.(.J.G.^.&.=.<.4.J.(.o.H 7 | c | a 8 9 ].F L Q +.-+} t  .C m.h 4 ^ c 5.<+        ",
"  2 ] ^ z 2 y q.r.n.V.i.s.R.a.t.a.p.i.i.K }.T _.$._.<.|./.4.W 4.o.z.!.c [ 6./ b v L t 1.( C 1.t 6 v r : c M.}+6+      ",
"  3 { B { ,.q.i.J.s.Y.s.p.n.p.n.g.n !.!.!.!.g.i n n g.2...^.3.<.s.G V.n r.y A [ ~ 8 9 t t e.D.C L 6 9 8 _ { /+/+      ",
"  2 p p >.z.(.p.(.L.s.v.o.H.m y ] [ [ [ g g c c g | c ~ _ q.Z n t.a.t.L.J.p.H.: g 0 < b 9 v L h.t t h / : 3 $+6+      ",
"  p l ,.q.C.a.V.Q.t.v.o.q.{ ;.[ c < a ~ x 4 J J J 4 x ~ a | | ^ !.q.N t.Y.t.G.a.!.: g [ c 8 b h 6 h.y.v 7 m 5.2+      ",
"  l 2 ,.n.Y.v.z.t.i.Y.C.>.3 p < ~ ^ : v N H ..y...6 v 9 b 4 ] ^ | c ^ : f 2.T z.R.s.!.] 2 [ c / 9 v e.O h m ^ (+e+    ",
"  l 5.b.q.n.(.s.(.Y.z.o.#.2 ^ y %.{+#+E.k.~.&.` ` &.~./.y %.D # = { x c g ^ d C.n.t.V.(.!.^ 2 [ ~ / r r Z i y Y <+    ",
"  l 9.u.C.v.n.n.n.n.C.H.#.p m %.$+[+S.5.s.G W M M U W v./+[+S.x.z *.>.O ~ c k _ o.Y.t.i.R.(.!.[ k c < 8 r f : y *+6+  ",
"    9.[.u.r.v.Y.t.p.o.b.X 3 y *.`.R.k+Y i+U @.o o @.S.p R.]+m+x.9.D *.Y.T i | 0 [ !.p.a.a.Y.z.p.y z [ ] 4 d : y 5.2+  ",
"    !+`.u.E.w.H.r.r.r.q.^ ^ m l l M.2 2 i+@.o 5 5 o P.;.p 5.5.9.!+D %.o.$.T i c 0 B _ q.n.(.L.a.r.X z p g _ y _ 5./+  ",
"      9.`.u.q.H.H.E.b.b.X _ g.B l l l z m+@.o 5 5 5 P.p l z z l D D B o.3.}.O ~ g l D X q.o.n.Y.s.t.b.p z 2 ^ ^ 3 {+  ",
"        `.-.,.u.E.w.w.,.Y m h.] ] { ^ _ V.M o o o o B.: 3 p z z p 2 g Y.3.}...d c 2 D 2 ,.H.v.Y.p.n.w.u.p z p 3 9.:+  ",
"          (+F.K.-.,.,.u.X i } D.v ^.}.t.G U M @.@.@.M a.r f 7 i 7 r q.,+-+1.e.b ] 5.z 3 >.w.C.p.i.a.s.v.,.l l p M.~+  ",
"            K.K.-.-.u.,.Y d E q c.<./.~.` B.W G.U U U W Q.T 4.4.T 2.{._+c.D.w i [.~+2 Y >.H.n.n.C.o.r.q.u.Y D l !+}+  ",
"              #+#+$+F.`.-.,.6 A.U.-+0.k.~.&.` G G G B.=.G &.4.0.0._+{.q 1.y.v 4 $+9.^ X #.w.o.C.p.t.Y.z.r.,.z D M.{+  ",
"                  $+#+$+F.x.E.h y.A.}./.0.4.|.~.~.&.&.&.~.~.|.4.,+-+U.D.y.h 8 -.$+2 X ,.#.w.w.v.v.C.r.w.E.,.Y !+~+l+  ",
"                      $+#+$+F.E.f Z 2.T ^.<.$./.0.0.0.0.0.3./.<.}.D.h.e.v 8 >.{+5.{ X >.>.b.r.H.w.H.H.w.b.-.(+M.h+    ",
"                          #+{+#+7+b.f N H 2.K T _.^.}.^.^._.T K ..w h b 4 F.{+*+5.X Y ,.u.u.>.E.w.w.b.>.`.`.(+}+c+    ",
"                              7+$+#+7+b.!.f n N O O O O O Z N P 9 8 #.8+#+:+9.Y Y x.,.[.,.u.u.-.K.K.u.-.F.#+a+~+      ",
"                                    *+}+K.>.#.i 7 f f f f 7 !.b.u.-.K.~+!+x.`.`.`.`.K.-.K.F.K.K.K.$+#+{+#+}+          ",
"                                      z 3 ,.y y y : y _ y ,.{ 3 3 2 X ,.Y (+#+{+#+{+#+{+#+#+{+<+/+/+<+<+              ",
"                                    3 3 n i.i.A.D. .+._.A.y.C R.o.i a.Y.V.u.F.  <+#+<+{+{+/+/+                        ",
"                                  [.u.v.K B.^.}.@.P.j c.c.L.$.h.C H.v.2.i.O q.9+                                      ",
"                                X b.b.C.H A.-+^.G.$.c.q j <.1.1.L.P z.^.D.D.2.i.9+                                    ",
"                              E.o.q.7 2.a.c.&.U.U.c.|.j 1 j c.-+_.n o.i.D._.A.e.H.2+                                  ",
"                              ,.o.#.o..._./.` ~.|.` ,+-+{.V./.-+D...d K A.J.V.e.V.0+                                  ",
"                            Y w...m i...1.4.&.=.=.M ~.|./.o B.Q L.Y.m K A.G.S.h.2.E.6+                                ",
"                            ,.w.n.!.N K _.4.|.` G U ` G ^.Q.(.E s.Y.!.N }.T T ^.<.O 0+                                ",
"                            #.H.r.!.H ^._.3.4.~.&.` &.` k.U.3.$.A.t.f d ^./.$.$.a.v.1+                                ",
"                            ,.w.E.y N T _.$./.4.k.|.k.|.k./.3.3.$.S.p.: 2.<./.$.i.C.F.                                ",
"                            Y >.,.5.!.O 2._.^.$./.3./.3./.}.$.$.^.i.r.^ n 2._._.v.w.K.                                ",
"                            *+Y Y *+X 7 N ..K _._.}._.^.^.}._.}._.T K _ y q.N r.f : #+                                ",
"                              (+~+)+`.] d g.N H 2.2.2...2.2.2.K K h.K !.3 { y y ] Y {+                                ",
"                                    @ (+^ y d 7 P g.n f n N n Z Z 2.2.n 3 9.~+`.(+:+                                  ",
"                                    ! M.*+3 ^ ] : : : y : m f !.n O N n.d p ~+M.                                      ",
"                                      9.l M.p 9.5.Y Y Y x.{ _ !.Z Y.s.p.!.^ }+                                        ",
"                                      x.X Y 2 D l M.)+(+}+}+x.y q.g.r.N o.,.:+                                        ",
"                                      :+x.,.b.,.2 !+~+      :+5.y g.H.O H.X #+                                        ",
"                                        *+3 { { 2 ~+          (+3 : !.q.m *+{+                                        ",
"                                                                  p 3 { 2 (+                                          "};
