/* XPM */
static char * tree_xpm[] = {
"64 64 632 2",
"  	c #4FAF7B",
". 	c #6B843F",
"+ 	c #6B853E",
"@ 	c #6A823F",
"# 	c #667E3E",
"$ 	c #66803E",
"% 	c #66803D",
"& 	c #667F3E",
"* 	c #5A793A",
"= 	c #64813C",
"- 	c #708C40",
"; 	c #779342",
"> 	c #799442",
", 	c #759141",
"' 	c #6C893E",
") 	c #62813C",
"! 	c #65833D",
"~ 	c #6A873F",
"{ 	c #6C883F",
"] 	c #6D893F",
"^ 	c #66833E",
"/ 	c #5E7D3B",
"( 	c #59793A",
"_ 	c #66833D",
": 	c #67843D",
"< 	c #5A783A",
"[ 	c #65823D",
"} 	c #809B45",
"| 	c #839D45",
"1 	c #7F9944",
"2 	c #759041",
"3 	c #728D41",
"4 	c #759042",
"5 	c #779142",
"6 	c #789242",
"7 	c #769142",
"8 	c #6F8B40",
"9 	c #617E3C",
"0 	c #627F3C",
"a 	c #617F3C",
"b 	c #5D7B3B",
"c 	c #68843D",
"d 	c #738E41",
"e 	c #789342",
"f 	c #748F41",
"g 	c #68853E",
"h 	c #5D7B3A",
"i 	c #5B793A",
"j 	c #65823C",
"k 	c #769141",
"l 	c #829C45",
"m 	c #849E46",
"n 	c #7E9844",
"o 	c #799342",
"p 	c #7A9443",
"q 	c #809A44",
"r 	c #67843E",
"s 	c #607D3C",
"t 	c #5C7A3A",
"u 	c #63803D",
"v 	c #6A863E",
"w 	c #6D8840",
"x 	c #6C8840",
"y 	c #69853F",
"z 	c #63803C",
"A 	c #69853E",
"B 	c #799443",
"C 	c #7D9744",
"D 	c #718C40",
"E 	c #5F7C3B",
"F 	c #64813D",
"G 	c #839D46",
"H 	c #819B45",
"I 	c #7B9543",
"J 	c #829C46",
"K 	c #829D46",
"L 	c #7D9844",
"M 	c #6A863F",
"N 	c #5D7A3B",
"O 	c #779143",
"P 	c #779243",
"Q 	c #748F42",
"R 	c #6E8A40",
"S 	c #5E7B3B",
"T 	c #7A9543",
"U 	c #859F46",
"V 	c #7B9643",
"W 	c #728D40",
"X 	c #66823D",
"Y 	c #809A45",
"Z 	c #769042",
"` 	c #6B873F",
" .	c #627E3C",
"..	c #7F9945",
"+.	c #7C9744",
"@.	c #819B46",
"#.	c #6D8940",
"$.	c #758F42",
"%.	c #819C46",
"&.	c #7F9A45",
"*.	c #68843E",
"=.	c #7E9944",
"-.	c #7B9644",
";.	c #7A9544",
">.	c #738F41",
",.	c #799343",
"'.	c #839E46",
").	c #607E3C",
"!.	c #607D3B",
"~.	c #738E40",
"{.	c #7C9644",
"].	c #718C41",
"^.	c #6C873F",
"/.	c #759142",
"(.	c #5E7C3B",
"_.	c #7C9643",
":.	c #779242",
"<.	c #789343",
"[.	c #65813D",
"}.	c #728E41",
"|.	c #6F8A40",
"1.	c #6A853E",
"2.	c #6B863E",
"3.	c #617E3B",
"4.	c #6F8A41",
"5.	c #7E9945",
"6.	c #69863E",
"7.	c #637F3C",
"8.	c #5A7739",
"9.	c #537036",
"0.	c #819C45",
"a.	c #829D45",
"b.	c #7B9544",
"c.	c #738E42",
"d.	c #5A7839",
"e.	c #557237",
"f.	c #526F36",
"g.	c #537137",
"h.	c #577539",
"i.	c #849F46",
"j.	c #6E8B40",
"k.	c #5C793A",
"l.	c #5B7838",
"m.	c #597637",
"n.	c #557236",
"o.	c #597739",
"p.	c #597639",
"q.	c #5A7639",
"r.	c #708B41",
"s.	c #749042",
"t.	c #728E42",
"u.	c #728D42",
"v.	c #5E7B3A",
"w.	c #607D3A",
"x.	c #5F7C39",
"y.	c #537035",
"z.	c #607C3B",
"A.	c #64803C",
"B.	c #65813C",
"C.	c #5B7939",
"D.	c #5D7A3A",
"E.	c #67833D",
"F.	c #6D883F",
"G.	c #6F8B3F",
"H.	c #5F7C3A",
"I.	c #617F3A",
"J.	c #627F3A",
"K.	c #5F7C38",
"L.	c #5A7737",
"M.	c #587638",
"N.	c #5C7939",
"O.	c #5E7A3A",
"P.	c #6E893F",
"Q.	c #6C883E",
"R.	c #6F8B3E",
"S.	c #5F7D3A",
"T.	c #64813A",
"U.	c #63803A",
"V.	c #607D39",
"W.	c #587537",
"X.	c #516E35",
"Y.	c #537136",
"Z.	c #577538",
"`.	c #64803D",
" +	c #708C41",
".+	c #759043",
"++	c #617D3B",
"@+	c #6B873E",
"#+	c #6D893E",
"$+	c #708B3F",
"%+	c #63813A",
"&+	c #65823A",
"*+	c #617E39",
"=+	c #587538",
"-+	c #627E3B",
";+	c #6F8B41",
">+	c #5E7B39",
",+	c #67843B",
"'+	c #6A863C",
")+	c #6F8A3F",
"!+	c #728E40",
"~+	c #769241",
"{+	c #627F3B",
"]+	c #63803B",
"^+	c #638039",
"/+	c #607D38",
"(+	c #587536",
"_+	c #68833E",
":+	c #708B40",
"<+	c #769041",
"[+	c #718B40",
"}+	c #738D41",
"|+	c #5F7B3A",
"1+	c #597738",
"2+	c #68853C",
"3+	c #7A9542",
"4+	c #6E8A3F",
"5+	c #5E7C3A",
"6+	c #617E3A",
"7+	c #62803B",
"8+	c #67843C",
"9+	c #66833B",
"0+	c #5C7938",
"a+	c #5B7837",
"b+	c #567236",
"c+	c #65803D",
"d+	c #69843E",
"e+	c #718D41",
"f+	c #5A7838",
"g+	c #66833A",
"h+	c #69853C",
"i+	c #718D40",
"j+	c #728E3F",
"k+	c #749041",
"l+	c #65823B",
"m+	c #68863C",
"n+	c #6B883D",
"o+	c #6B893D",
"p+	c #67853C",
"q+	c #577436",
"r+	c #718B3F",
"s+	c #779241",
"t+	c #627F39",
"u+	c #69863C",
"v+	c #6E893E",
"w+	c #728D3F",
"x+	c #637F3B",
"y+	c #67853B",
"z+	c #6D8B3E",
"A+	c #6A883D",
"B+	c #63813B",
"C+	c #5C7A38",
"D+	c #5B7938",
"E+	c #577437",
"F+	c #7F9A44",
"G+	c #6E8940",
"H+	c #6A873D",
"I+	c #6E8A3E",
"J+	c #6F8C3F",
"K+	c #68853D",
"L+	c #617F3B",
"M+	c #66843B",
"N+	c #6A883C",
"O+	c #6C8A3D",
"P+	c #6D8B3D",
"Q+	c #5D7A38",
"R+	c #506D35",
"S+	c #66813C",
"T+	c #6A863D",
"U+	c #6D8A3F",
"V+	c #6B883E",
"W+	c #6D8A3E",
"X+	c #5F7D39",
"Y+	c #6A873C",
"Z+	c #6C8A3E",
"`+	c #587436",
" @	c #849D46",
".@	c #708A40",
"+@	c #6B873D",
"@@	c #69863D",
"#@	c #66833C",
"$@	c #5D7B39",
"%@	c #637F3A",
"&@	c #5E7A38",
"*@	c #64813B",
"=@	c #65833B",
"-@	c #69873C",
";@	c #6C893D",
">@	c #68863B",
",@	c #64823A",
"'@	c #506D34",
")@	c #4D6A34",
"!@	c #647F3C",
"~@	c #769143",
"{@	c #779343",
"]@	c #738F42",
"^@	c #6E8B3F",
"/@	c #64823B",
"(@	c #577336",
"_@	c #526F35",
":@	c #4F6C34",
"<@	c #758F41",
"[@	c #62803A",
"}@	c #66843C",
"|@	c #567336",
"1@	c #69843D",
"2@	c #5E7C39",
"3@	c #5C7A39",
"4@	c #779141",
"5@	c #597638",
"6@	c #607E3A",
"7@	c #69873D",
"8@	c #617D39",
"9@	c #607C38",
"0@	c #5E7B38",
"a@	c #5B7839",
"b@	c #5D7A39",
"c@	c #6D883E",
"d@	c #67853D",
"e@	c #5C7937",
"f@	c #607E3B",
"g@	c #5C7837",
"h@	c #527036",
"i@	c #607E39",
"j@	c #68843C",
"k@	c #5A7637",
"l@	c #5B7737",
"m@	c #597636",
"n@	c #4C6934",
"o@	c #64823C",
"p@	c #69853D",
"q@	c #547135",
"r@	c #4A6733",
"s@	c #4F6C35",
"t@	c #67833C",
"u@	c #7E9845",
"v@	c #6C873E",
"w@	c #5F7B39",
"x@	c #637F39",
"y@	c #506C34",
"z@	c #4A6633",
"A@	c #4F6B35",
"B@	c #748E42",
"C@	c #66823B",
"D@	c #5A7738",
"E@	c #5C7B38",
"F@	c #5B7A38",
"G@	c #597838",
"H@	c #5F7B38",
"I@	c #648139",
"J@	c #516D35",
"K@	c #4E6B34",
"L@	c #597538",
"M@	c #617D3A",
"N@	c #64803B",
"O@	c #547136",
"P@	c #557336",
"Q@	c #587737",
"R@	c #597737",
"S@	c #65803C",
"T@	c #5D7939",
"U@	c #527035",
"V@	c #537235",
"W@	c #577636",
"X@	c #577637",
"Y@	c #67823D",
"Z@	c #5F7A3A",
"`@	c #5B7738",
" #	c #65833A",
".#	c #4D6934",
"+#	c #557136",
"@#	c #5E7A39",
"##	c #5C7838",
"$#	c #65813B",
"%#	c #547336",
"&#	c #637E3B",
"*#	c #5A7638",
"=#	c #496633",
"-#	c #6C883D",
";#	c #607C39",
">#	c #597537",
",#	c #577536",
"'#	c #557436",
")#	c #557437",
"!#	c #789341",
"~#	c #748F40",
"{#	c #4D6B34",
"]#	c #516F35",
"^#	c #567436",
"/#	c #567537",
"(#	c #526E35",
"_#	c #587637",
":#	c #789243",
"<#	c #789241",
"[#	c #769140",
"}#	c #68853B",
"|#	c #4B6833",
"1#	c #567437",
"2#	c #66823C",
"3#	c #607C3A",
"4#	c #7B9642",
"5#	c #708C3E",
"6#	c #6D893D",
"7#	c #67833B",
"8#	c #4F6B34",
"9#	c #587437",
"0#	c #516F34",
"a#	c #4D6A33",
"b#	c #567536",
"c#	c #597837",
"d#	c #577537",
"e#	c #66823A",
"f#	c #486532",
"g#	c #4C6933",
"h#	c #547236",
"i#	c #547335",
"j#	c #506E34",
"k#	c #537135",
"l#	c #69863B",
"m#	c #68843B",
"n#	c #4E6D34",
"o#	c #4B6933",
"p#	c #4F6D34",
"q#	c #64803A",
"r#	c #547036",
"s#	c #567237",
"t#	c #506C35",
"u#	c #5A7937",
"v#	c #496632",
"w#	c #4E6C34",
"x#	c #506F35",
"y#	c #557235",
"z#	c #627E3A",
"A#	c #5D7937",
"B#	c #567335",
"C#	c #547035",
"D#	c #547235",
"E#	c #4E6933",
"F#	c #4D6733",
"G#	c #526E34",
"H#	c #506A34",
"I#	c #4C6332",
"J#	c #4B6132",
"K#	c #4C6632",
"L#	c #4F6833",
"M#	c #4E5D31",
"N#	c #4D5B30",
"O#	c #4E6432",
"P#	c #4F6E34",
"Q#	c #516B34",
"R#	c #556434",
"S#	c #585D33",
"T#	c #5A5A33",
"U#	c #575B33",
"V#	c #526033",
"W#	c #4F6834",
"X#	c #617F39",
"Y#	c #4B5E30",
"Z#	c #4F512F",
"`#	c #524F2F",
" $	c #515A31",
".$	c #506433",
"+$	c #506633",
"@$	c #546433",
"#$	c #5C5D34",
"$$	c #635534",
"%$	c #655335",
"&$	c #635635",
"*$	c #5B5D34",
"=$	c #546634",
"-$	c #587236",
";$	c #627E39",
">$	c #5C7737",
",$	c #546E35",
"'$	c #567135",
")$	c #456231",
"!$	c #456131",
"~$	c #4A572F",
"{$	c #51482E",
"]$	c #584A2F",
"^$	c #615A33",
"/$	c #676536",
"($	c #686737",
"_$	c #676336",
":$	c #655935",
"<$	c #655034",
"[$	c #674F34",
"}$	c #675335",
"|$	c #625735",
"1$	c #5C5F34",
"2$	c #5A6A35",
"3$	c #597336",
"4$	c #597536",
"5$	c #556C34",
"6$	c #516032",
"7$	c #526333",
"8$	c #576E35",
"9$	c #496733",
"0$	c #54432D",
"a$	c #5E4B30",
"b$	c #6D5B36",
"c$	c #786739",
"d$	c #7B6A3A",
"e$	c #776639",
"f$	c #6D5A36",
"g$	c #644E33",
"h$	c #644D33",
"i$	c #685134",
"j$	c #685435",
"k$	c #655835",
"l$	c #5E5F35",
"m$	c #556734",
"n$	c #516A34",
"o$	c #526A34",
"p$	c #526834",
"q$	c #525E32",
"r$	c #525130",
"s$	c #515530",
"t$	c #506332",
"u$	c #58432F",
"v$	c #604A31",
"w$	c #6C5635",
"x$	c #786239",
"y$	c #7E683B",
"z$	c #7C663A",
"A$	c #705A36",
"B$	c #634D33",
"C$	c #634C33",
"D$	c #685135",
"E$	c #6C5536",
"F$	c #6C5836",
"G$	c #665B35",
"H$	c #5D5D34",
"I$	c #595E34",
"J$	c #5A5F34",
"K$	c #595D34",
"L$	c #585432",
"M$	c #55492F",
"N$	c #524A2E",
"O$	c #4E5A30",
"P$	c #496833",
"Q$	c #5C4530",
"R$	c #604A32",
"S$	c #725B38",
"T$	c #7A643A",
"U$	c #7B643A",
"V$	c #6A5335",
"W$	c #6F5836",
"X$	c #715B37",
"Y$	c #6E5A37",
"Z$	c #685735",
"`$	c #655635",
" %	c #655535",
".%	c #645534",
"+%	c #5F4E32",
"@%	c #59452F",
"#%	c #54442E",
"$%	c #5D4631",
"%%	c #614A32",
"&%	c #705A37",
"*%	c #776139",
"=%	c #776239",
"-%	c #6F5937",
";%	c #675034",
">%	c #6E5736",
",%	c #725B37",
"'%	c #745C38",
")%	c #6F5837",
"!%	c #695235",
"~%	c #634C32",
"{%	c #5C4630",
"]%	c #624B33",
"^%	c #6B5435",
"/%	c #755E38",
"(%	c #745E38",
"_%	c #6D5636",
":%	c #745D38",
"<%	c #735B38",
"[%	c #705837",
"}%	c #6C5436",
"|%	c #6A5336",
"1%	c #654E33",
"2%	c #5F4831",
"3%	c #624B32",
"4%	c #715A37",
"5%	c #705937",
"6%	c #6B5536",
"7%	c #6C5636",
"8%	c #705936",
"9%	c #735C38",
"0%	c #735C37",
"a%	c #5C4531",
"b%	c #604932",
"c%	c #5C4431",
"d%	c #6B5535",
"e%	c #765F38",
"f%	c #654E34",
"g%	c #604832",
"h%	c #695334",
"i%	c #6D5736",
"j%	c #786139",
"k%	c #796239",
"l%	c #7A633A",
"m%	c #6C5535",
"n%	c #695234",
"o%	c #735D38",
"p%	c #796339",
"q%	c #7A6439",
"r%	c #7A6339",
"s%	c #7E673B",
"t%	c #7F683B",
"u%	c #745D37",
"v%	c #745E37",
"w%	c #6A5435",
"x%	c #614B32",
"y%	c #6A5334",
"z%	c #806A3C",
"A%	c #7F693B",
"B%	c #7B653A",
"C%	c #6E5735",
"D%	c #7D673B",
"E%	c #816A3C",
"F%	c #776138",
"G%	c #6D5735",
"H%	c #806A3B",
"I%	c #725C37",
"J%	c #5F4832",
"K%	c #735D37",
"L%	c #766038",
"M%	c #664F34",
"N%	c #624C32",
"O%	c #755F38",
"                                                . + + . @   # $ % % % % &                                                       ",
"                                  * * *       = - ; > , ' ) ! ~ { { ] { ^ /           ( * * * * *                               ",
"                                _ : : _     < [ , } | 1 2 { ] 3 4 5 6 7 8 _ 9         9 0 a 0 0 a                               ",
"                            b c d e e f g h i j k l m l n o 7 7 p n q n e 8 r s i t u v { w w x y z t                           ",
"                            b A B l l C D j E F f 1 G G G H C I n J m K L 4 M s N 9 A 3 O P 7 Q R F t                           ",
"                            S v T m U H V W X F 8 T Y G m G H Y H G m G n Z ` 9  .A 3 T ....+.P 8 F t                           ",
"                            b g 6 @.m m G +.D v #.$.V Y G m G G J %.H &.p 3 ` *.` d T Y G G =.7 { u t                           ",
"                          < N X d C %.m m l V 2 D D , -.Y G m G Y +.;.B 3 ` { >.,.C Y G m '.+.- X ).                            ",
"                        !.!.9 X ] 4 +.@.G G K =.6 ~.2 p ..G G Y {.P O 7 ].^.W C l | G l H n /.g (.                              ",
"                      u *.M M A *.{ 4 C @.m U J =.V _.=.H J Y -.:.4 <.-.p :.I l m m H C e 3 v 9 t                               ",
"                    b [.#.}.3 |.1.2.d I } m m G H } l G G J C P 4 P +.H l H H H l H n <.].g z 3.!.                              ",
"                    b [ 4.Q 4 Q f 7 T =.l m m G &.5.H G m J {.P <.+.Y G U m H L {.-.B 4 ].{ v 6.*.7.8.9.                        ",
"                    N [ 4.Q 4 <.n 0.a.K J J J Y {.b...G m J {.P V H G m m G &.;.P 7 4 Q Q c.3 3 ] = d.e.f.                      ",
"              g.e.h.t [ 8 Q 4 B } i.m J ..+.{.{.{.n H G m J {.<.{.l U m m m 0.n B 4 Q Q Q Q Q Q j.F k.l.m.n.                    ",
"            o.o.p.q.k.z { r.3 7 n J J ..p 7 4 P C J m m G H +.B C l G G G m m l =.,.s.t.u.c.Q c.|.[.v.w.x.m.y.                  ",
"          z.A.X B.!.C.D. .B.E.F.:.+.+.b.P d G.W _.| m G Y C +.L } G H n &.G m m l n 7 R F.].Q Q R [.H.I.J.K.L.n.                ",
"        M.7.#.].8 X N.M.8.k.O.A.P.f Q Q d - Q.R.> H G H {.B C 0.G J ..T +.Y G m m 0.:.v X { 3 3 ] = S.I.T.U.V.W.X.              ",
"      Y.Z.`. +.+}.*.k.8.++`.[.[.X *.@+#+#+#+#+$+:.{.C -.<.6 C | U G Y C T T L J m | e c ).[.A A _ z I.%+&+&+*+W.X.              ",
"    =+=+8.`.|.Q d 2.-+7.` r.;+6.!.>+U.,+,+'+)+d 4 7 7 7 4 7 -.H | m G } > !+~+=.G l :.E.S S s ).{+]+T.T.^+^+/+(+X.              ",
"  z.7.A.A.A._+:+:.<+[+:+}+4 c.` |+1+V.T.&+2+G.c.Q Q Q Q Q 4 :.3+1 | m l e Q.4+<.n +.d [ h 5+6+7+j 8+9+V.0+a+m.b+                ",
"8.c+#.D |.d+[.$+_.Y 1 T 7 Q e+v |+f+V.T.g+h+4+d d c.Q Q Q d i+j+o q | Y k+: c ].4 Q #.z H.I.l+m+n+o+p+>+q+n.n.y.                ",
"8.X 3 <.,.f r+s+Y m m 5.P :+v A.H.x.t+&+,+u+' 8 - D d Q Q d G.v+w+e 3+e - 8+j *.v v E.x+6+T.y+o+z+z+A+B+>+C+D+E+                ",
"8.B.3 T &.F+n F+l m G ..<.G+A.H.6+T.&+9+h+H+Q.' ' I+D d Q }.G.Q.' R.J+G.' K+j 0 9 9 L+J.J.T.M+N+O+P+O+A+m+2+l+Q+y.R+R+          ",
"o.3.2.:.H m m 0.&.H J H {.d A S+c T+2+u+Q.4+4+U+V+n+I+:+D :+W+n+H+H+H+H+H+H+: z {+L+3.X+>+x.J.,+Y+N+n+Z+z+z+H+J.L.W.`+n.        ",
"  C.7.W F+ @G 5.b.C H G H V d .@:+|.Q.Q.G.3 3 D U+Q.' #+Q.V++@H+H+H+H+@@K+@@K+: : #@{+$@f+f+>+%@9+,+u+o+z+z+o+M+t+V.&@(+X.      ",
"  O.B.D V ..n ;.P I H m m &.<.Q c.3 U+#+D Q Q c.- 4+4+' K+#@8+H+H+H+8+*@{+]+9+2+8+= {+3.3.++!.w.J.=@-@o+z+z+;@>@,@*+0+b+'@)@    ",
"o.!@F.d ~@P 5 4 4 T Y G l n {@Q d W 4+#+].c.]@c.d 3 3 ^@: J.T.2+H+K+]+h C.N.3.#@*@w.7.v R R A w.$@/@A+Z+z+z+O+u+T.Q+(@_@'@:@:@  ",
"8.X ].4 Q :+F.|.c.,.C _.o <@}.D - G.' Q.)+- i+3 d Q Q ].@@7+[@/@*@]+-+!.z.!.3.{+{+{+1.f B B D {+f+S.}@o+z+z+O+N+9+x.m.(@|@|@|@n.",
"8.[. +c.].A 7.c  +~@5 D 1@#@v ] U+' n+n+' ' ' 4+D d Q 3 ] #@J.2@3@v.A.` G+F.E.!.{+v f +.H Y 4@j 5@d.6@8+' z+z+O+7@l+8@K.9@/+0@L.",
"8.7.1.^.A 3.a@A.8 s.c.1.v.b@j n+#+U+W+#+n+@@8+2+] - ].- U+K+I.D+C.3.^.4 p :.|.X E.:+B Y m G V c@++H.3.= d@V+z+z+o+l+*+t+T.&+^+e@",
"  N.D.v.O.1+5@7.R d 3 d+D.3@l+' - e+e+- ' 2+[@[@8+@+#+' V+p+6@C.f@^.Z n H ..B 3 :+f T } m m =.k+] ` c {+w.}@Z+z+Y+*+a+&@^+&+^+g@",
"  h@Y.E+f+D+b@{+A { ` X w.3.K+8 }.Q Q d 8 H+*@i@6+*@j@H+n+8+S.C.= 3 -.J m m Y I ,.B +.@.m m Y B 3 ] E.D.d.7+H+o+2+V.k@l@0@x.0@m@",
"  n@R+m.{+o@*@{+!.E H.3.*@p@|.3 ]@Q Q Q }.8 @@]+b@0+J.2+H+8+S.C.B.e+-.@.G m K H Y Y H G m G Y B - E.v.p.5@w.9+y+M+U.K.l@(@b+n.q@",
"  r@s@l.#@H+@@*@5+C.3@{+@@8 3 c.}.3 c.Q Q }.U+t@x.l.>+]+l+B+>+d.3.` 3 e _...0.G m m m m G H u@I <@v@A.!.|+w@V.^+&+&+x@&@(@_@y@:@",
"  z@A@l.#@H+H+8+o@B+*@p@|.}.B@3 8 8 3 Q Q 3 4+@@C@6+0+D@D+E@F@G@C.H.{+E.)+:.u@J m m m m H C {.C n T 4 :+c |+D@H@I@&+T.t+&@(@J@K@",
"    A@L@M@N@]+J.U.l+K+U+3 Q Q W 4+#+8 - G+^.+@n+H+l+l.O@P@Q@Q@R@D+v.3.S+P.5 u@J m m m m H +.+.H G G &.,.:+S@T@Q+V.U.,@&+t+l@_@K@",
"      9.b+(@|@|@W.x.8+4+}.Q Q i+U+n+Q.6.x+++l+T+H+#@l.U@V@W@X@1+w.A :+2 p n @.G m m m m J } } J m m H ;.c.P.Y@Z@`@x.T. #^+a+_@K@",
"        .#n@)@s@+#@#t@W+D 3 3 - #++@H+#@>+##V.*@$#6+m.O@%#X@f+H.*.3 T } | G l 0.l G m m m '.l Y 1 &.=.B 4 d R &#*#a+K.*+K.m@_@  ",
"          =#n@O@b@N@2+-#W+4+4+' n+H+H+j@*@;#0+D@5@>#,#'#)#1+++A |.4 {.l m m Y C n l m m m m 1 !#~#:.<.7 4 Q D j@w@k@`+q+q+n.    ",
"          =#{#W.*@@@H+2+#@8+@@@@8+#@@@H+u+*@*#_@]#Y.^#X@/#D@B.:+Q 4 P V =.Y L b.C H l q F+&.V ~.#+G.W W D D G.T+J.m@(#:@:@      ",
"            K@k@l+H+@@N@@#x.l+l+w.x.l+H+H+l+5@X.]#P@X@_#/#8.X ].4 d |.c@D :#{.n } l =.<#[#6 :.W P.Q.+@+@+@+@H+}#J.(+:@|#        ",
"            K@W.6+l+$#w@m.N.*@*@b@l.6+j #@6+m.Y.P@X@W@^#1#D@z { :+] 2#3#X 3 -.H '.| 4#5#6#D Q Q D +@7#g+g+g+g+g+t+L.y.8#        ",
"              O@9#m.k@`@b@J.t@8+J.>+0+l.l.D@,#^#X@W@V@0#Y._#$@0 z 0 h C.A.].b.0.m | 3+I+T+8 Q Q D T+&+T.&+&+&+&+U.9@l@n.K@      ",
"                K@a#:@W.]+@@H+K+l+;#W.y._@O@b#Q@c#,#0#K@]#P@X@M.M.M.d#G@A.- p &.H F+s+6#u+4+3 3 G.'+e#&+T.^+t+T.&+T.8@(+:@      ",
"                  f#g#E+*@H+H+#@x.m.^#h#h#P@_#c#c#Q@i#0#j#j#k#^#d#1#h#P@++8 :.T > k R.l#,+'+Q.Q.H+m#&+&+t+Q+a+/+T.g+t+(+K@r@    ",
"                    )@E+6+#@2#;#b+]#P@_#Q@Q@X@X@Q@c#Q@'#n#o#p#P@d#^#k#O@3#] d d $++@m#e#&+g+C@T.q#T.&+&+*+q+y.m.V.t+K.q+8#      ",
"                      r#m.l.`@s#t#:@P@R@c#X@k#U@'#c#u#b#n#v#r@w#x#U@y#L.z#T+c@Q.u+9+&+&+&+T.*+A#g@8@&+&+V.B#K@_@q+W.q+C#        ",
"                        8#:@K@)@g#K@D#d#X@q@E#F#G#b#X@P@H#I#J#I#K#K@(@V.&+9+7#9+&+T.U.T.&+T.K.|@C#g@t+t+K.y#a#g#)@K@K@          ",
"                            =#  r@a#w#j#j#L#M#N#O#:@P#Q#R#S#T#U#V#W#q+X#&+&+&+T.V.e@Q+t+&+&+K.y.8#y.(+m.q+y.g#r@r@r@            ",
"                                    f#f#f#Y#Z#`# $.$+$@$#$$$%$&$*$=$-$;#J.^+U.;$>$,$'$&@x@^+Q+y.g#g#K@8#K@                      ",
"                                      )$!$~${$]$^$/$($_$:$<$[$}$|$1$2$3$m.m@m.4$5$6$7$8$>#m.q+_@|#9$r@r@                        ",
"                                            0$a$b$c$d$e$f$g$h$i$j$k$l$m$n$n$o$p$q$r$s$t$8#:@8#                                  ",
"                                            u$v$w$x$y$z$A$B$C$D$E$F$G$H$I$I$J$K$L$M$N$O$z@P$                                    ",
"                                            Q$R$i$S$T$U$A$g$h$V$W$X$Y$Z$`$ %`$.%+%@%#%                                          ",
"                                            $%%%i$&%*%=%-%;%i$>%,%'%S$)%E$V$!%D$~%{%u$                                          ",
"                                            $%]%^%X$/%(%)%^%_%,%:%/%:%<%[%}%|%!%1%2%Q$                                          ",
"                                            $%3%V$)%4%5%W$)%4%:%/%/%/%:%S$)%>%_%i$%%$%                                          ",
"                                            $%%%;%6%7%_%8%,%:%/%/%/%/%/%:%9%0%,%^%C$$%                                          ",
"                                            a%b%;%7%>%W$4%:%/%/%/%/%/%/%/%/%/%:%_%C$$%c%                                        ",
"                                        b%b%b%h$d%4%,%0%:%/%e%e%/%:%:%:%:%/%e%:%>%f%b%g%b%                                      ",
"                                        h%d%d%i%X$(%/%e%j%k%l%j%:%W$_%>%4%:%/%:%,%>%m%d%h%g$                                    ",
"                                    R$n%o%p%q%x$e%:%:%e%r%s%t%z$u%h%h$1%^%4%:%:%e%k%T$p%v%w%x%                                  ",
"                                    y%X$T$z%A%B%(%W$C%4%*%D%E%A%F%G%1%%%g$d%>%W$(%U$A%H%B%I%w%1%                                ",
"                                J%i$K%B%H%z%z$L%_%M%h$i$8%x$y$z%y$x$>%N%b%C$h$f%m%O%z$z%z%B%(%h%J%                              "};
